<svg width="148" height="37" viewBox="0 0 148 37" fill="none" xmlns="http://www.w3.org/2000/svg">
<g clip-path="url(#clip0_707_2184)">
<path d="M116.628 11.0811V36.9503H107.364V11.0811H116.628ZM128.573 11.0303L132.805 17.1787L137.15 11.0303H146.699L137.436 23.327L147.5 36.8997H137.265L132.176 29.8813L127.087 36.8997H117.537L127.544 23.733L118.338 11.0303H128.573ZM95.2428 10.2132C102.206 10.2132 104.293 15.0454 104.334 20.3761L104.334 20.5378V36.7785H95.0713L95.0711 22.9263L95.0696 22.7181L95.0664 22.5139L95.0615 22.3137L95.0549 22.1176C95.0536 22.0853 95.0523 22.0531 95.0509 22.0211L95.0415 21.8312C95.038 21.7685 95.0342 21.7066 95.0301 21.6453L95.0167 21.4635C95.0143 21.4335 95.0118 21.4038 95.0092 21.3742L94.9926 21.1985L94.9738 21.027C94.7113 18.796 93.8539 17.6376 91.6404 17.6376C89.0158 17.6376 87.8785 19.4816 87.5964 22.4213L87.5779 22.6306C87.5437 23.0529 87.5262 23.4966 87.5237 23.9597L87.5234 36.7785H78.2602V23.032L78.2594 22.8217C78.2591 22.787 78.2588 22.7525 78.2583 22.7181L78.2549 22.5139L78.2497 22.3137L78.2425 22.1176L78.2334 21.9256C78.2317 21.894 78.23 21.8625 78.2281 21.8312L78.216 21.6453L78.2017 21.4635L78.1852 21.2858C77.9446 18.8856 77.0696 17.6376 74.7721 17.6376C71.7718 17.6376 70.677 20.139 70.6554 23.9597L70.6551 36.7785H61.3919V10.9093H70.6551V14.7954C72.0274 11.9534 74.7721 10.2132 78.6032 10.2132C83.1205 10.2132 85.4648 12.3013 86.5514 15.3175C87.9238 12.4173 90.9543 10.2132 95.2428 10.2132ZM46.3137 9.39611C54.7486 9.39611 59.2602 15.1948 59.3496 22.1207L59.3509 22.3309V24.9409H41.4534C41.6821 28.1311 43.9694 29.6391 46.7713 29.6391C49.2546 29.6391 50.8465 28.7917 51.7122 26.8176L51.746 26.7391L59.1794 27.435C57.8643 33.3515 53.1755 36.6575 46.4281 36.6575C38.2514 36.6575 32.4189 31.6692 32.4189 23.4329C32.4189 15.2545 38.3656 9.39611 46.3137 9.39611ZM17.8314 0C27.1743 0 31.8171 4.47695 31.8171 11.6284C31.8171 16.9775 28.55 20.4659 24.1364 21.0474C27.8621 21.8033 30.0401 23.9545 30.4414 28.1989L30.4995 28.9794L30.5502 29.7091L30.594 30.3916L30.6244 30.9063L30.6571 31.5136L30.6741 31.8601L30.6982 32.4107L30.7177 32.9306L30.7274 33.2295L30.7404 33.7084L30.7517 34.256L30.7558 34.5206L30.7631 35.2874L30.7655 36.0875L30.7656 36.5659H21.1309C21.1309 36.3641 21.1324 36.1696 21.1348 35.9789L21.1406 35.6014L21.1572 34.687L21.1615 34.3805L21.1641 34.0634C21.1644 34.0094 21.1646 33.955 21.1648 33.8998L21.1643 33.5925L21.1615 33.2701L21.1576 33.0171L21.1497 32.6629L21.1382 32.2873L21.1229 31.8879L21.1032 31.4624L21.0917 31.2391L21.072 30.8903L21.0493 30.5237L21.0142 30.0058L20.9839 29.5942C20.7175 25.7012 19.162 24.624 16.3176 24.4923L16.1323 24.4851L15.9434 24.4804C15.8799 24.4792 15.8157 24.4785 15.751 24.4781L0.5 24.4778V16.8613H16.112C20.2388 16.8613 22.3022 15.5875 22.3022 12.2153C22.3022 9.2501 20.2388 7.45304 16.112 7.45304H0.5V0H17.8314ZM10.6874 30.8879C11.9515 30.8879 12.4804 31.5946 12.6688 32.2709L12.689 32.3488C12.6922 32.3617 12.6952 32.3747 12.6981 32.3876L12.714 32.4646L12.7273 32.5406C12.7293 32.5532 12.7312 32.5658 12.733 32.5783L12.7425 32.6526L12.7497 32.7253C12.7507 32.7373 12.7516 32.7492 12.7524 32.761L12.7563 32.831C12.7568 32.8425 12.7572 32.8539 12.7575 32.8652L12.7584 32.9319V36.5659H0.5V30.8879H10.6874ZM46.1994 16.1245C43.8802 16.1245 42.5698 17.2537 41.9427 18.9066L41.8958 19.0348L41.8516 19.165C41.8086 19.2961 41.7697 19.4302 41.7345 19.5669L41.7006 19.7045C41.6788 19.7968 41.6587 19.8902 41.6402 19.9847L41.6137 20.1272C41.6095 20.1511 41.6054 20.175 41.6014 20.199L41.5784 20.3437L41.5679 20.4166H50.5451C50.4307 18.0965 48.9441 16.1245 46.1994 16.1245ZM116.685 0.40844V8.64499H107.307V0.40844H116.685Z" fill="#121212"/>
</g>
<defs>
<clipPath id="clip0_707_2184">
<rect width="147" height="37" fill="white" transform="translate(0.5)"/>
</clipPath>
</defs>
</svg>
