<svg width="186" height="39" viewBox="0 0 186 39" fill="none" xmlns="http://www.w3.org/2000/svg">
<g clip-path="url(#clip0_707_2186)">
<path d="M38.4013 26.9651L27.9847 38.3412H8.81837L19.1312 26.9651H38.4013ZM72.6298 8.89143C79.6528 8.89143 82.0778 13.3468 82.2524 16.7606H76.1219C75.9861 15.2948 74.8609 13.964 72.591 13.964C70.5347 13.964 69.3706 14.9476 69.3706 16.2399C69.3706 20.1552 82.3493 16.2399 82.3493 25.8063C82.3493 29.9916 78.7603 33.2897 72.4164 33.2897C65.0444 33.2705 62.5417 29.5288 62.2313 25.1698H68.6722C68.7691 26.732 69.9331 28.198 72.5716 28.198C74.9967 28.198 76.2382 27.3493 76.2382 26.057C76.2382 22.1418 63.2207 25.8256 63.2207 16.587C63.2207 12.3631 66.8486 8.89143 72.6298 8.89143ZM155.624 8.89143C162.919 8.89143 166.372 14.0026 166.818 17.9757H160.28C159.795 15.9698 157.913 14.504 155.585 14.504C152.19 14.504 150.212 17.1657 150.212 21.0809C150.212 24.9963 152.19 27.658 155.585 27.658C157.913 27.658 159.795 26.192 160.28 24.1862H166.818C166.372 28.1401 162.919 33.2705 155.624 33.2705C148.815 33.2705 143.848 28.0243 143.848 21.0809C143.848 14.1376 148.815 8.89143 155.624 8.89143ZM106.037 8.87212C112.982 8.87212 117.677 14.1182 117.677 21.023C117.677 22.0452 117.58 22.8939 117.58 22.8939H100.566C101.012 26.0956 103.069 27.8315 106.25 27.8315C108.171 27.8315 110.014 26.9828 110.771 25.2856H117.173C115.776 30.011 111.488 33.2512 106.076 33.2512C99.1306 33.2512 94.2612 28.1786 94.2612 21.023C94.2612 14.1182 99.0917 8.87212 106.037 8.87212ZM90.6721 3.99248V9.4122H95.3476V14.5619H90.6721V32.7305H84.3089V3.99248H90.6721ZM132.868 8.89143C138.513 8.89143 141.501 12.6332 141.501 18.1879V32.7305H135.138V18.8822C135.138 16.1627 133.974 14.2919 131.16 14.2919C128.076 14.2919 126.369 16.2592 126.369 19.3644V32.7111H120.005V9.41218H125.884V12.2667C126.951 10.2608 129.376 8.89143 132.868 8.89143ZM175.548 9.41216V32.7305H169.185V9.41216H175.548ZM185.306 1.46582V32.7303H178.943V1.46582H185.306ZM50.693 13.4826L40.282 24.8585H0.693779L11.1048 13.4826H50.693ZM105.96 13.9639C103.069 13.9639 101.187 15.6998 100.644 18.3614H111.295C110.848 15.7384 108.928 13.9639 105.96 13.9639ZM42.568 0L32.1995 11.376H12.9851L23.369 0H42.568ZM172.347 0C174.578 0 176.188 1.60084 176.188 3.81887C176.188 6.03689 174.578 7.59916 172.347 7.59916C170.135 7.59916 168.506 6.0562 168.506 3.81887C168.506 1.60084 170.116 0 172.347 0Z" fill="#393939"/>
</g>
<defs>
<clipPath id="clip0_707_2186">
<rect width="184.612" height="38.4609" fill="white" transform="translate(0.693779)"/>
</clipPath>
</defs>
</svg>
