<svg width="186" height="41" viewBox="0 0 186 41" fill="none" xmlns="http://www.w3.org/2000/svg">
<g clip-path="url(#clip0_707_2188)">
<path d="M47.0811 20.3116V30.2334L31.6187 40.1576V30.2334L47.0811 20.3116ZM31.6187 20.3116V30.2334L16.1562 40.1576V30.2334L31.6187 20.3116ZM16.1562 20.3116V30.2334L0.693779 40.1576V30.2334L16.1562 20.3116ZM96.5929 18.7187C98.343 21.8998 97.8348 25.8862 95.3463 28.4972C93.9754 29.8626 92.146 30.6348 90.2364 30.654C88.857 30.6876 87.514 30.1974 86.4646 29.2772V37.3077H82.4915V15.3143H86.3548V16.4702C87.4446 15.5336 88.8223 15.0241 90.2433 15.0323C92.8488 15.0084 95.269 16.4135 96.5929 18.7187ZM110.596 16.5853V15.3049H114.366L114.356 30.3086H110.626V29.0281C109.557 30.1065 108.109 30.6932 106.612 30.654C103.994 30.6752 101.572 29.2359 100.285 26.8948C99.5779 25.6663 99.2197 24.2592 99.2508 22.8326C99.2508 19.8041 100.772 17.2737 103.023 15.9909C104.125 15.348 105.373 15.0142 106.641 15.0229C108.109 14.9851 109.531 15.547 110.596 16.5853ZM154.783 15.0206C157.672 15.0206 159.831 16.146 161.261 18.4273L158.219 20.3633C157.368 19.1134 156.242 18.4837 154.813 18.4837C152.502 18.4837 150.952 20.328 150.952 22.889C150.952 25.4499 152.441 27.1368 154.783 27.1368C156.201 27.1659 157.543 26.4773 158.372 25.2948L161.29 27.2778C159.893 29.3406 157.521 30.6211 154.813 30.6211C151.954 30.6211 149.431 29.2466 148.031 26.8619C146.985 25.0441 146.696 22.8705 147.228 20.8311C147.761 18.7917 149.07 17.0583 150.86 16.0215C152.065 15.355 153.414 15.0108 154.783 15.0206ZM177.708 14.9953L177.885 14.9971C182.295 14.9971 185.305 18.1853 185.305 23.1521C185.308 23.3087 185.304 23.4653 185.291 23.6213L185.276 23.7771H174.054C174.358 25.9621 175.827 27.118 177.885 27.118C179.256 27.15 180.567 26.5522 181.462 25.4919L181.545 25.3912L184.333 27.2754L184.246 27.3993C182.783 29.4454 180.509 30.5858 177.885 30.5858C175.605 30.5858 173.567 29.7165 172.258 28.3068C170.894 26.8333 170.142 24.8727 170.161 22.8396C170.161 19.9333 171.467 17.4687 173.841 16.0591C174.967 15.3937 176.236 15.0296 177.531 14.9976L177.708 14.9953ZM64.3071 15.037C66.3154 15.037 67.7747 15.7254 68.6256 17.0999C70.2374 15.7247 72.0017 15.037 73.9185 15.037C77.3564 15.0323 79.2114 17.1022 79.2114 20.906V30.3039H75.2566V21.2185C75.2566 19.3765 74.4057 18.4696 72.7634 18.4696C71.5435 18.4696 70.4761 19.0006 69.5611 20.0626V30.3086H65.6154V21.2185C65.6154 19.3765 64.7943 18.4696 63.152 18.4696C61.9054 18.4696 60.8418 19.0311 59.9291 20.1565V30.3086H55.9446V15.3143H59.6546V16.724C60.9605 15.6107 62.6102 15.0125 64.3071 15.037ZM126.219 15.0323V18.9066C125.861 18.8098 125.492 18.7678 125.123 18.7821C123.807 18.8194 122.573 19.4471 121.747 20.4996V30.3086H117.765V15.3143H121.475V16.6887C122.66 15.4693 123.968 15.0323 126.219 15.0323ZM134.94 10.317V15.3143H138.225V18.6881H134.94V30.3086H130.983V18.6881H127.916V15.3143H130.983V10.317H134.94ZM144.543 15.3143V30.3086H140.558V15.3143H144.543ZM167.857 7.84767V30.3086H163.905V7.84767H167.857ZM107.179 18.4696C105.049 18.4696 103.226 20.1565 103.226 22.842C103.226 25.5274 105.02 27.1861 107.149 27.1861C108.397 27.2306 109.6 26.7039 110.434 25.7483V19.938C109.605 18.9908 108.419 18.4558 107.179 18.4696ZM89.7538 18.4696C88.4746 18.4508 87.2519 19.01 86.4097 19.9991V25.7177C87.2198 26.6604 88.3879 27.196 89.612 27.1861C91.849 27.1861 93.6423 25.5298 93.6423 22.7809C93.6423 20.126 91.8124 18.4696 89.7538 18.4696ZM177.983 18.3404C176.107 18.3404 174.814 19.2676 174.25 20.9789L174.214 21.0916H181.481C181.004 19.2888 179.887 18.3818 178.101 18.344L177.983 18.3427V18.3404ZM31.6187 0.460938V10.3851L16.1562 20.3092V10.3851L31.6187 0.460938ZM47.0811 0.460938V10.3851L31.6187 20.3092V10.3851L47.0811 0.460938ZM16.1562 0.460938V10.3851L0.693779 20.3092V10.3851L16.1562 0.460938ZM144.634 9.19156V13.3149H140.466V9.19156H144.634Z" fill="#393939"/>
</g>
<defs>
<clipPath id="clip0_707_2188">
<rect width="184.612" height="39.9994" fill="white" transform="translate(0.693779 0.460938)"/>
</clipPath>
</defs>
</svg>
