<svg width="185" height="185" viewBox="0 0 185 185" fill="none" xmlns="http://www.w3.org/2000/svg">
<g clip-path="url(#clip0_505_204)">
<g clip-path="url(#clip1_505_204)">
<path d="M45.8746 92.1572V102.079L30.4122 112.003V102.079L45.8746 92.1572ZM30.4122 92.1572V102.079L14.9497 112.003V102.079L30.4122 92.1572ZM14.9497 92.1572V102.079L-0.512695 112.003V102.079L14.9497 92.1572ZM95.3865 90.5642C97.1366 93.7453 96.6283 97.7317 94.1399 100.343C92.7689 101.708 90.9395 102.48 89.0299 102.5C87.6505 102.533 86.3075 102.043 85.2581 101.123V109.153H81.285V87.1599H85.1483V88.3158C86.2381 87.3792 87.6159 86.8697 89.0368 86.8779C91.6423 86.854 94.0625 88.2591 95.3865 90.5642ZM109.39 88.4309V87.1505H113.159L113.15 102.154H109.419V100.874C108.351 101.952 106.902 102.539 105.405 102.5C102.788 102.521 100.365 101.081 99.0782 98.7404C98.3714 97.5119 98.0133 96.1048 98.0444 94.6782C98.0444 91.6497 99.5654 89.1193 101.816 87.8365C102.919 87.1936 104.167 86.8598 105.435 86.8685C106.902 86.8307 108.325 87.3926 109.39 88.4309ZM153.576 86.8662C156.465 86.8662 158.625 87.9916 160.054 90.2729L157.012 92.2089C156.161 90.959 155.036 90.3293 153.606 90.3293C151.296 90.3293 149.745 92.1736 149.745 94.7345C149.745 97.2955 151.234 98.9824 153.576 98.9824C154.995 99.0115 156.336 98.3229 157.165 97.1404L160.084 99.1234C158.686 101.186 156.314 102.467 153.606 102.467C150.747 102.467 148.224 101.092 146.824 98.7075C145.779 96.8897 145.489 94.7161 146.022 92.6767C146.554 90.6373 147.863 88.9039 149.654 87.8671C150.859 87.2006 152.208 86.8564 153.576 86.8662ZM176.502 86.8409L176.679 86.8427C181.089 86.8427 184.099 90.0309 184.099 94.9977C184.102 95.1543 184.097 95.3109 184.084 95.4669L184.069 95.6226H172.847C173.152 97.8077 174.62 98.9636 176.679 98.9636C178.049 98.9956 179.36 98.3977 180.256 97.3375L180.338 97.2367L183.127 99.121L183.04 99.2449C181.577 101.291 179.302 102.431 176.679 102.431C174.398 102.431 172.36 101.562 171.052 100.152C169.688 98.6789 168.936 96.7182 168.954 94.6852C168.954 91.7789 170.26 89.3143 172.635 87.9046C173.761 87.2392 175.03 86.8752 176.325 86.8432L176.502 86.8409ZM63.1006 86.8826C65.1089 86.8826 66.5682 87.571 67.4191 88.9455C69.0309 87.5702 70.7952 86.8826 72.712 86.8826C76.1499 86.8779 78.0049 88.9478 78.0049 92.7516V102.149H74.0501V93.0641C74.0501 91.2221 73.1992 90.3152 71.5569 90.3152C70.337 90.3152 69.2696 90.8462 68.3546 91.9081V102.154H64.409V93.0641C64.409 91.2221 63.5878 90.3152 61.9455 90.3152C60.6989 90.3152 59.6353 90.8767 58.7226 92.0021V102.154H54.7381V87.1599H58.4482V88.5695C59.754 87.4562 61.4037 86.8581 63.1006 86.8826ZM125.012 86.8779V90.7522C124.655 90.6554 124.286 90.6134 123.917 90.6277C122.601 90.665 121.367 91.2927 120.54 92.3451V102.154H116.558V87.1599H120.268V88.5343C121.453 87.3149 122.761 86.8779 125.012 86.8779ZM133.734 82.1625V87.1599H137.018V90.5337H133.734V102.154H129.777V90.5337H126.709V87.1599H129.777V82.1625H133.734ZM143.336 87.1599V102.154H139.352V87.1599H143.336ZM166.651 79.6932V102.154H162.698V79.6932H166.651ZM105.972 90.3152C103.843 90.3152 102.02 92.0021 102.02 94.6876C102.02 97.373 103.813 99.0317 105.943 99.0317C107.191 99.0762 108.394 98.5495 109.227 97.5939V91.7836C108.398 90.8364 107.212 90.3014 105.972 90.3152ZM88.5473 90.3152C87.2681 90.2964 86.0454 90.8556 85.2032 91.8447V97.5633C86.0133 98.506 87.1814 99.0416 88.4055 99.0317C90.6425 99.0317 92.4358 97.3754 92.4358 94.6265C92.4358 91.9716 90.6059 90.3152 88.5473 90.3152ZM176.777 90.186C174.901 90.186 173.608 91.1132 173.043 92.8245L173.007 92.9372H180.274C179.798 91.1344 178.681 90.2273 176.894 90.1896L176.777 90.1883V90.186ZM30.4122 72.3065V82.2307L14.9497 92.1548V82.2307L30.4122 72.3065ZM45.8746 72.3065V82.2307L30.4122 92.1548V82.2307L45.8746 72.3065ZM14.9497 72.3065V82.2307L-0.512695 92.1548V82.2307L14.9497 72.3065ZM143.428 81.0371V85.1605H139.26V81.0371H143.428Z" fill="#393939"/>
</g>
</g>
<defs>
<clipPath id="clip0_505_204">
<rect width="184.612" height="184.612" fill="white"/>
</clipPath>
<clipPath id="clip1_505_204">
<rect width="184.612" height="39.9994" fill="white" transform="translate(-0.512695 72.3065)"/>
</clipPath>
</defs>
</svg>
