<svg width="186" height="44" viewBox="0 0 186 44" fill="none" xmlns="http://www.w3.org/2000/svg">
<path d="M13.8917 25.1184H19.425C19.4827 26.2271 19.8861 27.0441 20.6354 27.5693C21.4424 28.0945 22.5375 28.3863 23.8632 28.3863C24.8431 28.3863 25.65 28.2112 26.3993 27.8027C27.0333 27.3942 27.3792 26.9274 27.3792 26.2271C27.3792 25.2351 26.2264 24.4765 23.9785 24.0096C22.9986 23.8346 22.2493 23.6595 21.7882 23.5428C18.9063 22.8425 17.0042 21.9672 16.0243 20.9752C14.9292 19.9831 14.4104 18.6993 14.4104 17.007C14.4104 14.9062 15.2174 13.2139 16.7736 11.8134C18.3875 10.5296 20.5202 9.94605 23.1139 9.94605C25.9382 9.94605 28.1861 10.588 29.8576 11.8134C31.4139 13.1556 32.2785 14.9646 32.3937 17.1237H28.9354C27.8979 17.1237 27.1486 16.6569 26.5722 15.7232C26.3417 15.4898 26.1111 15.3147 25.9382 15.0813C25.3042 14.6145 24.382 14.3227 23.2868 14.3227C22.1917 14.3227 21.3847 14.4977 20.866 14.7895C20.4049 15.1397 20.1167 15.6065 20.1167 16.2484C20.1167 17.1237 21.5 17.8823 24.3243 18.4659C24.6701 18.5826 24.9583 18.641 25.1889 18.6993C25.4195 18.7577 25.65 18.7577 25.8806 18.7577C28.6472 19.4579 30.5493 20.2749 31.6444 21.2086C32.6819 22.2006 33.2007 23.4844 33.2007 25.1767C33.2007 27.5693 32.3361 29.4367 30.6069 30.7788C28.9931 32.0043 26.5722 32.5879 23.2868 32.5879C20.232 32.5879 17.9264 31.9459 16.3702 30.7205C14.8139 29.4367 14.007 27.6277 14.007 25.2351V25.1184H13.8917ZM47.6104 16.6569C46.8034 15.4898 45.7083 14.9062 44.2673 14.9062C42.7687 14.9062 41.6159 15.4314 40.809 16.5402C40.0021 17.6489 39.5986 19.1662 39.5986 21.0335V32.3544H34.0653V4.11053H36.8319C37.5812 4.11053 38.2153 4.40231 38.7916 4.9275C39.3104 5.4527 39.5986 6.15296 39.5986 6.91158V13.389C40.5784 11.7551 41.9618 10.7047 43.7486 10.2962C45.5354 9.88769 47.2069 9.94605 48.8784 10.6463C50.377 11.2882 51.6451 12.3386 52.6826 13.7391C53.7201 15.1397 54.2388 17.1237 54.2388 19.633V32.3544H48.8208V21.0335C48.8208 20.2166 48.7631 19.4579 48.5902 18.7577C48.4173 18.1158 48.0715 17.4155 47.6104 16.6569ZM55.3916 10.5296H58.3312C59.0805 10.5296 59.7145 10.8214 60.2909 11.3466C60.8097 11.8718 61.0978 12.572 61.0978 13.3306V32.3544H55.4492V10.5296H55.3916ZM67.8416 37.4897C67.8416 38.2483 67.5534 38.8902 67.0346 39.4738C66.5159 39.999 65.8242 40.2907 65.0749 40.2907H62.3083V19.8664C62.3083 16.015 63.4034 13.4474 65.6513 12.0468C67.8416 10.6463 70.2624 9.94605 72.8562 9.94605C74.1818 9.94605 75.5652 10.1795 76.9485 10.7047C78.3318 11.2299 79.427 11.9885 80.2339 12.9805C81.8478 15.1397 82.6547 17.824 82.6547 21.2086C82.6547 24.6516 81.8478 27.4526 80.2339 29.5534C78.62 31.6542 76.545 32.6462 74.0089 32.6462C72.6832 32.6462 71.4728 32.4128 70.4353 31.8876C69.3402 31.3624 68.4756 30.4871 67.8416 29.32V37.4897ZM77.1214 21.3837C77.1214 19.2245 76.718 17.5906 75.911 16.4818C75.1041 15.3147 73.9513 14.7312 72.4527 14.7312C71.0117 14.7312 69.8589 15.3147 69.052 16.4818C68.3027 17.5322 67.8992 19.1662 67.8992 21.3837C67.8992 23.4844 68.3027 25.0017 69.1096 26.0521C69.9166 27.2192 71.0694 27.8027 72.568 27.8027C73.9513 27.8027 75.1041 27.2192 75.911 26.0521C76.718 24.9433 77.1214 23.3677 77.1214 21.3837ZM89.1679 37.4897C89.1679 38.2483 88.8797 38.8902 88.361 39.4738C87.8422 39.999 87.1506 40.2907 86.4013 40.2907H83.6346V19.8664C83.6346 16.015 84.7297 13.4474 86.9776 12.0468C89.1679 10.6463 91.5887 9.94605 94.1825 9.94605C95.5082 9.94605 96.8915 10.1795 98.2748 10.7047C99.6582 11.2299 100.753 11.9885 101.56 12.9805C103.174 15.1397 103.981 17.824 103.981 21.2086C103.981 24.6516 103.174 27.4526 101.56 29.5534C99.9464 31.6542 97.8714 32.6462 95.3353 32.6462C94.0096 32.6462 92.7992 32.4128 91.7617 31.8876C90.6665 31.3624 89.8019 30.4871 89.1679 29.32V37.4897ZM98.3901 21.3837C98.3901 19.2245 97.9866 17.5906 97.1797 16.4818C96.3728 15.3147 95.22 14.7312 93.7214 14.7312C92.2804 14.7312 91.1276 15.3147 90.3207 16.4818C89.5714 17.5322 89.1679 19.1662 89.1679 21.3837C89.1679 23.4844 89.5714 25.0017 90.3783 26.0521C91.1853 27.2192 92.3381 27.8027 93.8367 27.8027C95.22 27.8027 96.3728 27.2192 97.1797 26.0521C97.9866 24.9433 98.3901 23.3677 98.3901 21.3837ZM118.679 31.304C117.526 31.8876 116.316 32.2961 115.048 32.4128C113.78 32.5295 112.685 32.6462 111.705 32.6462C109.745 32.6462 108.073 32.121 106.575 31.0706C105.134 30.0202 104.385 28.2112 104.385 25.7603C104.385 23.4844 105.019 21.7921 106.344 20.8585C107.67 19.8664 109.341 19.2245 111.416 18.8744C111.705 18.8744 111.993 18.816 112.396 18.7577C112.8 18.6993 113.203 18.5826 113.722 18.5243C116.085 18.1741 117.296 17.4739 117.296 16.3651C117.296 15.5481 116.892 15.0229 116.028 14.7895C115.163 14.5561 114.414 14.4394 113.722 14.4394C112.973 14.4394 112.281 14.5561 111.705 14.7895C111.128 15.0229 110.667 15.4314 110.379 16.015H104.961C105.191 14.3227 105.941 12.9222 107.209 11.8134C108.65 10.5296 110.725 9.94605 113.434 9.94605C116.431 9.94605 118.737 10.4712 120.235 11.5216C121.791 12.6304 122.598 14.1476 122.598 16.1317V23.6012C122.598 25.8187 122.195 27.511 121.446 28.7364C120.696 29.8452 119.774 30.7205 118.679 31.304ZM117.411 21.2086C116.662 21.6171 115.624 21.9672 114.241 22.259L112.396 22.6675C111.416 22.9592 110.725 23.3094 110.264 23.7179C109.86 24.3014 109.687 24.9433 109.687 25.5269C109.687 26.3438 109.918 26.9858 110.437 27.511C110.898 27.9778 111.647 28.1529 112.569 28.1529C114.068 28.1529 115.278 27.7444 116.143 26.8107C117.007 25.9354 117.469 24.7099 117.469 23.1927V21.2086H117.411ZM129.515 6.32803V12.9222C130.091 11.8718 130.956 11.0548 132.109 10.3545C133.089 9.82934 134.241 9.53756 135.682 9.53756C138.219 9.53756 140.294 10.588 141.907 12.7471C143.521 14.9062 144.328 17.6489 144.328 21.0335C144.328 24.4181 143.521 27.1608 141.907 29.32C141.1 30.3704 140.005 31.129 138.622 31.5958C137.239 32.0627 135.855 32.2961 134.53 32.2961C131.936 32.2961 129.515 31.5958 127.325 30.2536C125.135 28.9115 123.982 26.2855 123.982 22.3757V3.52698H126.748C127.498 3.52698 128.132 3.81875 128.708 4.34395C129.227 4.86915 129.515 5.56941 129.515 6.32803ZM138.737 20.7418C138.737 18.7577 138.334 17.2404 137.527 16.1317C136.72 14.9646 135.625 14.381 134.184 14.381C132.685 14.381 131.532 14.9062 130.725 16.015C129.919 17.1821 129.515 18.6993 129.515 20.6834C129.515 22.9592 129.919 24.6516 130.668 25.7019C131.475 26.869 132.628 27.4526 134.069 27.4526C135.567 27.4526 136.72 26.869 137.527 25.7019C138.334 24.5932 138.737 22.9592 138.737 20.7418ZM145.308 4.11053H148.248C148.997 4.11053 149.631 4.34395 150.207 4.86915C150.726 5.39434 151.014 6.03625 151.014 6.79487V32.3544H145.366V4.11053H145.308ZM167.73 25.5852H171.764C171.188 27.8611 170.035 29.6117 168.364 30.8372C166.692 32.121 164.559 32.7046 162.023 32.7046C158.968 32.7046 156.548 31.7125 154.818 29.6701C153.089 27.686 152.225 24.885 152.225 21.2086C152.225 17.7073 153.089 14.9646 154.761 12.9805C156.49 10.9381 158.911 9.94605 161.966 9.94605C165.193 9.94605 167.73 10.9381 169.516 12.9222C171.246 14.9646 172.11 17.7656 172.11 21.3837V21.9672V22.3173C172.11 22.6091 172.11 22.7842 172.052 22.9009H158.046C158.104 24.5932 158.507 25.877 159.257 26.694C159.948 27.5693 160.986 28.0361 162.427 28.0361C163.349 28.0361 164.156 27.8611 164.79 27.4526C164.963 27.3942 165.078 27.2775 165.251 27.1608C165.366 27.0441 165.539 26.869 165.712 26.694C165.77 26.5189 165.943 26.2855 166.346 26.0521C166.577 25.7019 167.096 25.5852 167.73 25.5852ZM157.989 19.1662H166.231C166.116 17.7073 165.77 16.5985 165.078 15.8983C164.386 15.1397 163.349 14.7312 162.081 14.7312C160.871 14.7312 159.891 15.1397 159.141 15.8983C158.45 16.6569 158.046 17.7656 157.989 19.1662Z" fill="#393939"/>
<path d="M55.3916 4.11053H58.3312C59.0805 4.11053 59.7145 4.40231 60.2909 4.92751C60.8096 5.4527 61.0978 6.15297 61.0978 6.91158V8.66224H55.4492V4.11053H55.3916Z" fill="#238189"/>
</svg>
