<svg width="186" height="41" viewBox="0 0 186 41" fill="none" xmlns="http://www.w3.org/2000/svg">
<g clip-path="url(#clip0_707_2193)">
<path d="M19.3747 3.06916C19.7465 3.38172 19.8058 3.95053 19.5071 4.33963C19.2084 4.72873 18.6649 4.79077 18.2931 4.47821C16.0421 2.58585 14.1672 1.96107 13.0107 2.57889C11.6649 3.29718 11.1429 5.60819 11.4146 8.83311L11.4555 9.26846C11.4783 9.48878 11.5046 9.71303 11.5345 9.941L11.5988 10.4019C11.6787 10.9408 11.7774 11.499 11.8947 12.0739C13.5157 11.8111 15.2604 11.6392 17.0926 11.5676C17.8873 10.499 18.6954 9.49592 19.507 8.56716L19.9137 8.10827C20.931 6.9768 21.9513 5.96408 22.9553 5.08749L23.356 4.74415C27.0201 1.66421 30.4304 0.445514 32.6359 1.94406C34.5571 3.24847 35.072 6.20333 34.3585 10.1631C34.2701 10.6535 33.8186 10.9761 33.3499 10.8836C32.8813 10.7911 32.573 10.3186 32.6614 9.82814C33.259 6.51195 32.8656 4.2544 31.6957 3.46012C30.1753 2.42705 27.35 3.61634 24.1642 6.39376L23.8088 6.70887C23.6304 6.86966 23.451 7.03527 23.2708 7.20561L22.9092 7.55255C22.5466 7.90572 22.1811 8.27747 21.8139 8.66695L21.4463 9.06231C21.3849 9.12918 21.3235 9.19653 21.2621 9.26436L20.8933 9.67707L20.5242 10.1011L20.155 10.5363C20.0319 10.6832 19.9089 10.8319 19.7859 10.9824L19.4174 11.4393L19.3455 11.5304C20.2046 11.5351 21.0787 11.5612 21.9644 11.6094L22.3082 11.6292L22.9915 11.675C23.5584 11.7166 24.119 11.7668 24.6725 11.8252L25.3331 11.8991C25.4426 11.9121 25.5518 11.9254 25.6607 11.939L26.3103 12.0245C26.8485 12.099 27.3785 12.1813 27.8996 12.2711L28.5206 12.3826L29.1326 12.5012L29.7352 12.6267C31.7284 13.0568 33.5608 13.6014 35.1757 14.2398L35.6536 14.4341C39.8947 16.2076 42.5083 18.649 42.3742 21.3475C42.263 23.5784 40.3523 25.4199 37.1496 26.7395C36.7059 26.9224 36.2045 26.6941 36.0298 26.2297C35.8551 25.7653 36.0732 25.2407 36.5169 25.0578C39.1579 23.9696 40.5826 22.5965 40.6495 21.2535C40.735 19.5341 38.7693 17.7559 35.4972 16.3215L35.0901 16.1476C34.8144 16.0329 34.5301 15.9205 34.2378 15.8108L33.7933 15.6482C33.6432 15.5947 33.4911 15.5419 33.337 15.4897L32.8691 15.3355L32.39 15.1857C32.3093 15.1611 32.228 15.1367 32.1464 15.1125L31.651 14.9696C31.5675 14.9462 31.4836 14.923 31.3993 14.9L30.8883 14.7644C30.3723 14.6313 29.8412 14.5059 29.2965 14.3888L28.7472 14.2746C28.655 14.256 28.5623 14.2377 28.4693 14.2196L27.907 14.114L27.3363 14.0144C27.2405 13.9983 27.1444 13.9825 27.0479 13.9669L26.4653 13.8766C26.2698 13.8475 26.073 13.8195 25.8751 13.7926L25.2776 13.7153L24.6731 13.6446C24.3691 13.611 24.0627 13.58 23.7539 13.5516L23.1333 13.4985C22.9254 13.482 22.7166 13.4667 22.5068 13.4527L21.8747 13.4143L21.2421 13.3838L20.6144 13.3614C19.885 13.3398 19.1662 13.3344 18.4602 13.3441L17.9666 13.3537L17.7727 13.6231C17.6521 13.7924 17.5319 13.9632 17.412 14.1357L17.0537 14.6577C16.6371 15.2722 16.2259 15.9057 15.8222 16.5568C15.7069 16.7429 15.5931 16.9289 15.4807 17.1149L15.1483 17.6725C14.7942 18.2744 14.456 18.8751 14.1341 19.4724C14.1641 19.5477 14.1941 19.6234 14.2243 19.6993L14.459 20.2795C14.4989 20.3765 14.5391 20.4736 14.5798 20.5708L14.8281 21.1553L15.0854 21.7422L15.3517 22.3313L15.6271 22.922L15.9114 23.5141L16.2024 24.1027L16.4977 24.6828L16.7969 25.2544C16.8471 25.3489 16.8974 25.4431 16.9479 25.5369L17.2525 26.095C17.3546 26.2796 17.4573 26.4626 17.5604 26.644L17.8714 27.1836C17.9755 27.3619 18.0801 27.5385 18.1851 27.7135L18.5013 28.2336L18.8197 28.7436C19.0859 29.1643 19.3541 29.5743 19.6237 29.973L19.9477 30.446C20.1642 30.7576 20.3813 31.0618 20.5987 31.3584L20.925 31.7974L21.2515 32.2246C21.306 32.2948 21.3604 32.3646 21.4148 32.4338L21.7412 32.843L22.0671 33.2398C22.3927 33.6305 22.7172 34.0023 23.0395 34.3543L23.3609 34.6997L23.6806 35.0316C23.8399 35.1942 23.9985 35.3517 24.1561 35.5038L24.4701 35.8012C24.6265 35.9464 24.7818 36.0862 24.936 36.2205L25.2427 36.482C27.3274 38.218 29.1746 38.9191 30.4011 38.2645C31.5528 37.6499 32.1023 35.8557 32.0618 33.3111L32.0513 32.9239C32.0463 32.793 32.0399 32.6602 32.032 32.5257L32.0038 32.1169C31.9929 31.9789 31.9806 31.8392 31.9668 31.6978L31.921 31.2687C31.9126 31.1964 31.9038 31.1237 31.8947 31.0506L31.8357 30.6072L31.7679 30.1546L31.6913 29.6932C31.6238 29.3051 31.5472 28.9081 31.4614 28.5031L31.3541 28.0133L31.2381 27.5161C31.2181 27.4327 31.1976 27.3489 31.1768 27.2648L31.0477 26.7572L30.9099 26.2429C30.8862 26.1566 30.8621 26.0701 30.8377 25.9834L30.6868 25.4598L30.5272 24.9305C30.4452 24.6644 30.36 24.3963 30.2715 24.1264L30.0902 23.584L29.9002 23.037C29.7707 22.6708 29.6354 22.3018 29.4943 21.9302L29.2784 21.3712L29.0539 20.8088C29.0157 20.7148 28.9772 20.6206 28.9384 20.5264L28.7009 19.9595L28.4548 19.3901C28.4131 19.295 28.371 19.1998 28.3286 19.1045L28.0696 18.5318C28.0257 18.4362 27.9815 18.3405 27.9369 18.2448C27.7279 17.7962 27.906 17.2552 28.3347 17.0365C28.7634 16.8178 29.2803 17.0043 29.4893 17.4529L29.7756 18.077C29.8696 18.2847 29.9619 18.4922 30.0527 18.6993L30.3203 19.3194C30.5831 19.9384 30.8318 20.5537 31.0659 21.1637L31.2953 21.772C31.3327 21.8731 31.3697 21.974 31.4063 22.0747L31.621 22.6771C31.656 22.7772 31.6905 22.877 31.7247 22.9767L31.9247 23.5725C32.0547 23.9682 32.1781 24.3606 32.2949 24.7494L32.465 25.3297C34.5013 32.452 34.24 38.2447 31.1856 39.8746C28.715 41.1934 25.212 39.3616 21.686 35.4984L21.3212 35.0916C21.078 34.8156 20.8349 34.5301 20.5921 34.2355L20.2283 33.7869C19.2591 32.5724 18.2988 31.2152 17.3685 29.7385L17.0211 29.1793C16.1563 27.7673 15.3202 26.253 14.5303 24.6558L14.3729 24.3352C14.2685 24.1208 14.1656 23.9065 14.0643 23.6925L13.7655 23.0509C13.5303 22.538 13.3045 22.0267 13.0883 21.5177L12.9492 21.8072C12.9062 21.8975 12.8636 21.9877 12.8214 22.0777L12.5729 22.6161L12.3339 23.1505L12.1046 23.6807C12.0672 23.7687 12.0302 23.8565 11.9936 23.9441L11.7789 24.4672C11.7439 24.554 11.7093 24.6405 11.6751 24.7268L11.475 25.2421C11.4425 25.3275 11.4104 25.4127 11.3787 25.4976L11.1933 26.0042C11.1633 26.0882 11.1336 26.1718 11.1044 26.2552L10.934 26.7524L10.7735 27.2428C10.6958 27.4863 10.6219 27.7271 10.5517 27.965L10.4165 28.437L10.2914 28.901C10.2714 28.9777 10.2518 29.054 10.2327 29.1299L10.123 29.5813C10.0358 29.9538 9.95943 30.3171 9.89388 30.6702L9.82044 31.0891C9.33163 34.0547 9.6502 36.242 10.8612 37.0645C12.081 37.8926 14.3427 37.2626 17.1336 35.154C17.5202 34.8619 18.06 34.9531 18.3391 35.3577C18.6183 35.7624 18.5311 36.3273 18.1445 36.6194C14.8368 39.1185 11.9129 39.9329 9.92119 38.5806C7.51473 36.9462 7.34558 32.6246 8.94726 27.2482L9.11331 26.7071C9.22793 26.3442 9.35034 25.9767 9.48042 25.6053L9.68127 25.0453C9.95668 24.2948 10.2625 23.5295 10.5975 22.7531L10.8543 22.1689L11.1219 21.5808C11.4629 20.8443 11.8291 20.0998 12.2195 19.3505C12.1679 19.212 12.1165 19.0739 12.0659 18.936L11.8425 18.3154C11.5515 17.4907 11.288 16.6777 11.0529 15.8803L10.8818 15.2852C10.7762 14.9079 10.6771 14.5345 10.5846 14.1652L10.2681 14.2337L9.79855 14.3418L9.34033 14.4553C9.26493 14.4746 9.19001 14.4942 9.11558 14.514L8.67502 14.6352L8.24662 14.7615C8.10589 14.8044 7.96724 14.8481 7.83072 14.8926L7.42762 15.0286C7.29542 15.0747 7.16541 15.1215 7.03764 15.1691L6.66111 15.3142C4.07318 16.3454 2.49676 17.6984 2.42351 19.1722C2.35657 20.5154 3.63741 22.036 6.15659 23.4049C6.57983 23.6349 6.74478 24.1804 6.52502 24.6233C6.30526 25.0663 5.784 25.2389 5.36076 25.0089C2.30565 23.3488 0.587667 21.3092 0.698863 19.0782C0.853444 15.968 4.60486 13.594 10.1848 12.3953C9.05544 6.74796 9.63022 2.35427 12.2258 0.968972C14.1443 -0.0559666 16.6508 0.779222 19.3747 3.06916ZM132.615 6.304C140.963 6.304 146.437 13.2694 146.437 21.1408V21.2242C146.437 29.0962 140.884 36.1437 132.535 36.1437C124.186 36.1437 118.712 29.1789 118.712 21.3063V21.2242C118.712 13.3521 124.265 6.304 132.615 6.304ZM160.534 6.67486C160.967 6.67486 161.283 6.92249 161.558 7.29394L172.31 23.8619L183.062 7.29394C183.298 6.92249 183.653 6.67486 184.085 6.67486H184.282C184.833 6.67486 185.306 7.17013 185.306 7.74637V34.7418C185.306 35.3193 184.833 35.8145 184.282 35.8145C183.731 35.8145 183.259 35.3193 183.259 34.7418V10.5906L173.137 26.0055C172.9 26.3769 172.625 26.5412 172.271 26.5412C171.916 26.5412 171.64 26.3769 171.405 26.0055L161.283 10.5906V34.7841C161.283 35.3603 160.85 35.8145 160.299 35.8145C159.747 35.8145 159.314 35.3609 159.314 34.7841V7.74637C159.314 7.17013 159.786 6.67486 160.338 6.67486H160.534ZM109.183 6.79809C109.694 6.79809 110.128 7.25111 110.128 7.78745C110.128 8.32379 109.695 8.7768 109.183 8.7768H100.361V34.743C100.361 35.3193 99.8886 35.8145 99.3369 35.8145C98.7863 35.8145 98.313 35.3193 98.313 34.743V8.7768H89.4908C88.9794 8.7768 88.546 8.32438 88.546 7.78745C88.546 7.25169 88.9789 6.79809 89.4908 6.79809H109.183ZM68.6991 6.50997C69.4078 6.50997 69.802 6.92249 70.0767 7.54158L81.813 34.1656C81.9313 34.4132 81.9705 34.6192 81.9705 34.8258C81.9705 35.3609 81.5377 35.8145 80.9854 35.8145C80.5132 35.8145 80.1589 35.4437 79.9621 34.9901L76.7329 27.5711H60.4673L57.2376 35.0317C57.0408 35.5258 56.7262 35.8145 56.253 35.8145C55.741 35.8145 55.3076 35.4026 55.3076 34.9073C55.3082 34.7424 55.348 34.4954 55.4663 34.2483L67.2412 7.54158C67.5171 6.92249 67.9107 6.50997 68.62 6.50997H68.6991ZM132.535 8.24105C125.722 8.24105 120.838 14.0111 120.838 21.1408V21.2242C120.838 28.3545 125.801 34.2067 132.615 34.2067C139.427 34.2067 144.31 28.4366 144.31 21.3063V21.2242C144.31 14.0939 139.348 8.24105 132.535 8.24105ZM68.6194 8.94228L61.3336 25.634H75.8661L68.6194 8.94228ZM24.1068 19.8792C24.3933 21.267 23.5506 22.6343 22.2245 22.9347C20.8984 23.2346 19.592 22.3526 19.3049 20.9648C19.0189 19.577 19.8611 18.2097 21.1872 17.9093C22.5133 17.6094 23.8197 18.4914 24.1068 19.8792ZM15.7469 13.4591L15.7099 13.462C15.5509 13.4736 15.3928 13.486 15.2356 13.4991L14.6739 13.5498L14.1205 13.6071C14.0289 13.6172 13.9378 13.6275 13.847 13.6381L13.3067 13.7051C13.2174 13.7167 13.1285 13.7287 13.04 13.7409L12.5135 13.8172L12.3045 13.8503L12.3784 14.139C12.494 14.5786 12.6192 15.0253 12.754 15.4784L12.9203 16.0249L13.0069 16.3004L13.187 16.8553C13.2366 17.0051 13.2872 17.1555 13.3388 17.3064C13.6121 16.8303 13.895 16.3531 14.187 15.8759L14.3735 15.5731C14.8231 14.848 15.2816 14.1427 15.7469 13.4591Z" fill="#393939"/>
</g>
<defs>
<clipPath id="clip0_707_2193">
<rect width="184.612" height="39.9994" fill="white" transform="translate(0.693779 0.53653)"/>
</clipPath>
</defs>
</svg>
