<svg width="185" height="186" viewBox="0 0 185 186" fill="none" xmlns="http://www.w3.org/2000/svg">
<g clip-path="url(#clip0_505_208)">
<g clip-path="url(#clip1_505_208)">
<path d="M19.2749 75.4516C19.6467 75.7642 19.706 76.333 19.4073 76.7221C19.1086 77.1112 18.5651 77.1732 18.1933 76.8607C15.9424 74.9683 14.0674 74.3435 12.9109 74.9613C11.5651 75.6796 11.0431 77.9906 11.3148 81.2156L11.3557 81.6509C11.3785 81.8712 11.4048 82.0955 11.4347 82.3234L11.499 82.7843C11.5789 83.3232 11.6776 83.8814 11.7949 84.4563C13.4159 84.1935 15.1606 84.0216 16.9928 83.95C17.7875 82.8814 18.5956 81.8784 19.4072 80.9496L19.8139 80.4907C20.8312 79.3592 21.8515 78.3465 22.8555 77.4699L23.2562 77.1266C26.9203 74.0467 30.3306 72.828 32.5361 74.3265C34.4573 75.6309 34.9722 78.5858 34.2587 82.5455C34.1703 83.036 33.7188 83.3586 33.2501 83.2661C32.7815 83.1736 32.4733 82.701 32.5616 82.2106C33.1592 78.8944 32.7658 76.6368 31.5959 75.8426C30.0755 74.8095 27.2502 75.9988 24.0644 78.7762L23.709 79.0913C23.5306 79.2521 23.3512 79.4177 23.171 79.5881L22.8094 79.935C22.4468 80.2882 22.0813 80.6599 21.7141 81.0494L21.3465 81.4448C21.2851 81.5116 21.2237 81.579 21.1623 81.6468L20.7936 82.0595L20.4244 82.4836L20.0552 82.9187C19.9321 83.0656 19.8091 83.2144 19.6862 83.3649L19.3176 83.8217L19.2457 83.9128C20.1048 83.9176 20.9789 83.9436 21.8646 83.9918L22.2084 84.0116L22.8917 84.0575C23.4586 84.0991 24.0193 84.1492 24.5727 84.2076L25.2333 84.2816C25.3428 84.2945 25.452 84.3078 25.5609 84.3214L26.2105 84.407C26.7487 84.4814 27.2787 84.5637 27.7998 84.6536L28.4208 84.765L29.0328 84.8836L29.6355 85.0092C31.6286 85.4393 33.461 85.9839 35.0759 86.6222L35.5538 86.8165C39.7949 88.5901 42.4085 91.0314 42.2744 93.73C42.1632 95.9608 40.2525 97.8023 37.0498 99.122C36.6061 99.3048 36.1047 99.0766 35.93 98.6122C35.7553 98.1478 35.9734 97.6231 36.4172 97.4403C39.0581 96.352 40.4828 94.979 40.5497 93.6359C40.6352 91.9165 38.6695 90.1383 35.3974 88.704L34.9903 88.5301C34.7146 88.4153 34.4304 88.303 34.138 88.1933L33.6936 88.0307C33.5434 87.9771 33.3913 87.9243 33.2372 87.8722L32.7694 87.7179L32.2902 87.5681C32.2095 87.5435 32.1283 87.5191 32.0466 87.4949L31.5512 87.352C31.4677 87.3286 31.3839 87.3054 31.2995 87.2824L30.7886 87.1468C30.2725 87.0138 29.7414 86.8884 29.1967 86.7713L28.6475 86.657C28.5552 86.6385 28.4625 86.6201 28.3695 86.602L27.8072 86.4965L27.2365 86.3968C27.1407 86.3808 27.0446 86.3649 26.9481 86.3493L26.3655 86.259C26.17 86.23 25.9732 86.202 25.7753 86.1751L25.1778 86.0977L24.5733 86.0271C24.2694 85.9934 23.9629 85.9624 23.6541 85.9341L23.0335 85.8809C22.8257 85.8644 22.6168 85.8491 22.407 85.8351L21.7749 85.7967L21.1423 85.7663L20.5146 85.7438C19.7853 85.7222 19.0664 85.7168 18.3604 85.7266L17.8668 85.7361L17.673 86.0056C17.5524 86.1748 17.4321 86.3457 17.3123 86.5181L16.9539 87.0402C16.5373 87.6547 16.1262 88.2882 15.7225 88.9393C15.6071 89.1253 15.4933 89.3113 15.381 89.4973L15.0485 90.0549C14.6944 90.6569 14.3562 91.2575 14.0343 91.8549C14.0643 91.9301 14.0943 92.0059 14.1245 92.0818L14.3592 92.662C14.3991 92.7589 14.4393 92.856 14.48 92.9532L14.7283 93.5377L14.9856 94.1247L15.252 94.7137L15.5273 95.3045L15.8116 95.8965L16.1027 96.4851L16.3979 97.0653L16.6971 97.6368C16.7473 97.7314 16.7976 97.8255 16.8481 97.9193L17.1527 98.4775C17.2548 98.662 17.3575 98.845 17.4607 99.0265L17.7716 99.566C17.8757 99.7443 17.9803 99.921 18.0853 100.096L18.4015 100.616L18.7199 101.126C18.9861 101.547 19.2543 101.957 19.5239 102.355L19.8479 102.828C20.0644 103.14 20.2815 103.444 20.4989 103.741L20.8252 104.18L21.1518 104.607C21.2062 104.677 21.2606 104.747 21.315 104.816L21.6414 105.225L21.9673 105.622C22.2929 106.013 22.6174 106.385 22.9397 106.737L23.2611 107.082L23.5808 107.414C23.7401 107.577 23.8987 107.734 24.0563 107.886L24.3704 108.184C24.5267 108.329 24.6821 108.469 24.8362 108.603L25.1429 108.864C27.2276 110.6 29.0749 111.302 30.3013 110.647C31.453 110.032 32.0026 108.238 31.962 105.694L31.9515 105.306C31.9465 105.175 31.9401 105.043 31.9322 104.908L31.904 104.499C31.8931 104.361 31.8808 104.222 31.867 104.08L31.8212 103.651C31.8128 103.579 31.8041 103.506 31.795 103.433L31.7359 102.99L31.6681 102.537L31.5915 102.076C31.524 101.688 31.4474 101.291 31.3616 100.886L31.2544 100.396L31.1383 99.8986C31.1183 99.8151 31.0978 99.7313 31.0771 99.6473L30.9479 99.1396L30.8101 98.6253C30.7864 98.5391 30.7623 98.4526 30.7379 98.3658L30.587 97.8423L30.4274 97.313C30.3454 97.0469 30.2602 96.7788 30.1717 96.5088L29.9904 95.9664L29.8005 95.4194C29.6709 95.0533 29.5356 94.6842 29.3946 94.3127L29.1786 93.7536L28.9541 93.1912C28.916 93.0972 28.8775 93.0031 28.8386 92.9088L28.6011 92.342L28.355 91.7725C28.3133 91.6774 28.2712 91.5822 28.2288 91.4869L27.9698 90.9143C27.9259 90.8187 27.8817 90.723 27.8371 90.6273C27.6281 90.1786 27.8062 89.6377 28.2349 89.419C28.6636 89.2003 29.1805 89.3867 29.3895 89.8353L29.6759 90.4594C29.7698 90.6672 29.8621 90.8746 29.9529 91.0817L30.2205 91.7019C30.4834 92.3209 30.732 92.9361 30.9662 93.5462L31.1955 94.1544C31.2329 94.2555 31.2699 94.3564 31.3065 94.4572L31.5212 95.0596C31.5562 95.1596 31.5907 95.2595 31.6249 95.3592L31.8249 95.955C31.9549 96.3506 32.0783 96.743 32.1951 97.1318L32.3652 97.7122C34.4015 104.834 34.1402 110.627 31.0859 112.257C28.6152 113.576 25.1123 111.744 21.5862 107.881L21.2214 107.474C20.9782 107.198 20.7351 106.913 20.4923 106.618L20.1285 106.169C19.1593 104.955 18.199 103.598 17.2687 102.121L16.9213 101.562C16.0565 100.15 15.2204 98.6355 14.4305 97.0382L14.2732 96.7177C14.1687 96.5032 14.0658 96.289 13.9646 96.0749L13.6657 95.4334C13.4305 94.9205 13.2047 94.4091 12.9885 93.9001L12.8495 94.1896C12.8064 94.2799 12.7638 94.3701 12.7216 94.4601L12.4731 94.9985L12.2342 95.533L12.0049 96.0631C11.9674 96.1511 11.9304 96.2389 11.8938 96.3265L11.6791 96.8496C11.6441 96.9364 11.6095 97.023 11.5753 97.1093L11.3752 97.6245C11.3427 97.71 11.3106 97.7951 11.2789 97.8801L11.0936 98.3867C11.0635 98.4706 11.0338 98.5543 11.0046 98.6377L10.8342 99.1348L10.6737 99.6252C10.596 99.8687 10.5221 100.11 10.4519 100.347L10.3167 100.819L10.1916 101.283C10.1716 101.36 10.1521 101.436 10.1329 101.512L10.0232 101.964C9.93606 102.336 9.85964 102.7 9.79409 103.053L9.72066 103.472C9.23185 106.437 9.55042 108.624 10.7614 109.447C11.9812 110.275 14.2429 109.645 17.0338 107.536C17.4205 107.244 17.9602 107.336 18.2393 107.74C18.5185 108.145 18.4313 108.71 18.0447 109.002C14.737 111.501 11.8132 112.315 9.82141 110.963C7.41495 109.329 7.24579 105.007 8.84747 99.6307L9.01353 99.0896C9.12814 98.7266 9.25056 98.3592 9.38064 97.9878L9.58148 97.4278C9.8569 96.6773 10.1627 95.9119 10.4978 95.1356L10.7545 94.5513L11.0222 93.9633C11.3631 93.2267 11.7293 92.4822 12.1197 91.733C12.0681 91.5945 12.0167 91.4563 11.9661 91.3185L11.7427 90.6978C11.4517 89.8731 11.1883 89.0601 10.9531 88.2627L10.782 87.6676C10.6764 87.2904 10.5773 86.9169 10.4848 86.5477L10.1684 86.6162L9.69876 86.7243L9.24054 86.8377C9.16514 86.8571 9.09022 86.8766 9.0158 86.8964L8.57523 87.0176L8.14684 87.1439C8.00611 87.1868 7.86745 87.2305 7.73093 87.2751L7.32783 87.411C7.19564 87.4571 7.06563 87.504 6.93786 87.5516L6.56133 87.6967C3.9734 88.7278 2.39698 90.0809 2.32373 91.5547C2.25679 92.8978 3.53763 94.4184 6.05681 95.7873C6.48005 96.0173 6.645 96.5628 6.42524 97.0058C6.20547 97.4487 5.68422 97.6213 5.26097 97.3914C2.20587 95.7312 0.487882 93.6917 0.599078 91.4607C0.753659 88.3504 4.50508 85.9764 10.085 84.7777C8.95565 79.1304 9.53043 74.7367 12.126 73.3514C14.0445 72.3265 16.551 73.1617 19.2749 75.4516ZM132.515 78.6864C140.863 78.6864 146.337 85.6518 146.337 93.5233V93.6066C146.337 101.479 140.784 108.526 132.436 108.526C124.087 108.526 118.612 101.561 118.612 93.6888V93.6066C118.612 85.7346 124.165 78.6864 132.515 78.6864ZM160.434 79.0573C160.868 79.0573 161.183 79.3049 161.458 79.6764L172.21 96.2443L182.962 79.6764C183.198 79.3049 183.553 79.0573 183.985 79.0573H184.183C184.733 79.0573 185.206 79.5526 185.206 80.1288V107.124C185.206 107.702 184.733 108.197 184.183 108.197C183.631 108.197 183.159 107.702 183.159 107.124V82.9731L173.037 98.3879C172.801 98.7594 172.525 98.9237 172.171 98.9237C171.816 98.9237 171.54 98.7594 171.305 98.3879L161.183 82.9731V107.167C161.183 107.743 160.75 108.197 160.199 108.197C159.647 108.197 159.214 107.743 159.214 107.167V80.1288C159.214 79.5526 159.686 79.0573 160.238 79.0573H160.434ZM109.083 79.1805C109.595 79.1805 110.029 79.6336 110.029 80.1699C110.029 80.7062 109.595 81.1593 109.083 81.1593H100.261V107.125C100.261 107.702 99.7888 108.197 99.2371 108.197C98.6865 108.197 98.2132 107.702 98.2132 107.125V81.1593H89.391C88.8796 81.1593 88.4462 80.7068 88.4462 80.1699C88.4462 79.6341 88.8791 79.1805 89.391 79.1805H109.083ZM68.5993 78.8924C69.308 78.8924 69.7022 79.3049 69.9769 79.924L81.7132 106.548C81.8315 106.796 81.8707 107.002 81.8707 107.208C81.8707 107.743 81.4379 108.197 80.8856 108.197C80.4135 108.197 80.0591 107.826 79.8623 107.373L76.6331 99.9535H60.3675L57.1378 107.414C56.941 107.908 56.6264 108.197 56.1532 108.197C55.6412 108.197 55.2078 107.785 55.2078 107.29C55.2084 107.125 55.2482 106.878 55.3665 106.631L67.1414 79.924C67.4173 79.3049 67.8109 78.8924 68.5202 78.8924H68.5993ZM132.436 80.6235C125.622 80.6235 120.739 86.3936 120.739 93.5233V93.6066C120.739 100.737 125.701 106.589 132.515 106.589C139.327 106.589 144.211 100.819 144.211 93.6888V93.6066C144.211 86.4763 139.248 80.6235 132.436 80.6235ZM68.5197 81.3247L61.2338 98.0165H75.7663L68.5197 81.3247ZM24.007 92.2616C24.2936 93.6494 23.4508 95.0167 22.1247 95.3171C20.7987 95.617 19.4922 94.735 19.2051 93.3472C18.9191 91.9594 19.7613 90.5922 21.0874 90.2917C22.4135 89.9919 23.72 90.8738 24.007 92.2616ZM15.6471 85.8416L15.6101 85.8445C15.4511 85.856 15.293 85.8684 15.1358 85.8816L14.5741 85.9322L14.0207 85.9895C13.9292 85.9996 13.838 86.01 13.7472 86.0206L13.2069 86.0875C13.1176 86.0992 13.0287 86.1111 12.9402 86.1233L12.4137 86.1996L12.2047 86.2327L12.2786 86.5214C12.3942 86.961 12.5194 87.4078 12.6542 87.8608L12.8205 88.4074L12.9071 88.6828L13.0872 89.2377C13.1368 89.3875 13.1874 89.5379 13.239 89.6888C13.5123 89.2128 13.7952 88.7355 14.0872 88.2584L14.2737 87.9555C14.7233 87.2304 15.1818 86.5252 15.6471 85.8416Z" fill="#393939"/>
</g>
</g>
<defs>
<clipPath id="clip0_505_208">
<rect width="184.612" height="184.612" fill="white" transform="translate(0.0812988 0.612427)"/>
</clipPath>
<clipPath id="clip1_505_208">
<rect width="184.612" height="39.9994" fill="white" transform="translate(0.593994 72.919)"/>
</clipPath>
</defs>
</svg>
