<svg width="185" height="186" viewBox="0 0 185 186" fill="none" xmlns="http://www.w3.org/2000/svg">
<g clip-path="url(#clip0_505_212)">
<g clip-path="url(#clip1_505_212)">
<path d="M94.4443 96.1576C94.4443 98.2122 93.7595 99.9555 92.3897 101.325C90.5842 103.131 87.6579 104.127 84.1091 104.065C81.5564 104.002 79.0037 103.38 77.5717 102.508L78.5056 97.4029C80.0621 98.2745 82.7393 99.1462 84.7317 99.1462C86.4127 99.1462 87.4711 98.399 87.4711 97.1538C87.4711 96.0331 86.6617 95.286 84.6694 94.2898C81.4941 92.7333 79.9376 90.741 79.9376 88.3751C79.9376 83.7678 83.9223 80.5925 89.837 80.5925C92.9501 80.5925 95.0047 81.3396 96.1254 82.0867L95.1915 87.1298C94.3198 86.445 92.0162 85.5111 89.5257 85.5111C87.7824 85.5111 86.6618 86.2582 86.6618 87.4411C86.6618 88.3128 87.5334 89.0599 89.339 89.9938C91.7671 91.239 94.4443 93.0446 94.4443 96.1576ZM184.909 100.889C185.034 99.3329 183.913 98.0877 182.356 98.0877C180.8 98.0877 179.43 99.3329 179.306 100.889C179.181 102.321 180.177 103.691 181.858 103.691C183.415 103.691 184.785 102.446 184.909 100.889ZM184.536 100.889C184.411 102.197 183.228 103.318 181.858 103.318C180.551 103.318 179.617 102.259 179.742 100.952C179.866 99.6442 181.049 98.5236 182.419 98.5236C183.664 98.5236 184.598 99.582 184.536 100.889ZM182.605 101.263L183.041 102.57H182.605L182.17 101.325H181.547L181.298 102.57H180.862L181.485 99.2707H182.543C183.041 99.2707 183.415 99.6442 183.415 100.08C183.477 100.516 183.166 101.076 182.605 101.263ZM182.605 99.6442H181.858L181.609 100.889H182.294C182.668 100.889 182.979 100.578 183.041 100.205C183.104 99.9555 182.917 99.6442 182.605 99.6442ZM170.465 98.8971C173.266 98.8971 175.695 98.2122 178.31 96.718L177.251 102.321C174.076 103.94 170.34 104.127 168.908 104.127C162.682 104.127 159.195 100.703 159.195 94.6634C159.195 91.1768 160.503 87.6902 162.682 85.1375C165.048 82.3358 168.597 80.717 172.27 80.717C176.94 80.717 180.115 83.4565 180.115 87.5034C180.115 89.3712 179.492 90.9277 178.31 92.1107C176.068 94.2898 170.527 95.535 165.546 94.5389C165.235 97.2783 167.352 98.8971 170.465 98.8971ZM166.169 90.1184C170.091 90.1806 172.27 89.7448 173.266 88.8109C174.325 87.7524 173.951 85.5733 171.399 85.5733C168.535 85.5733 166.667 87.9392 166.169 90.1184ZM140.019 91.0523L137.591 103.629H131.24L132.05 99.2707C131.178 101.948 128.999 104.127 125.326 104.127C120.905 104.127 118.913 100.205 118.913 96.2822C118.913 91.7994 120.656 87.3789 123.582 84.4526C126.073 81.9622 129.248 80.6547 132.797 80.6547C139.085 80.717 141.14 84.9507 140.019 91.0523ZM133.855 88.1883C133.793 86.6318 132.921 85.7601 131.489 85.7601C128.376 85.7601 125.637 91.1768 125.637 94.9124C125.637 97.2783 126.509 98.7103 128.003 98.7103C130.431 98.7103 132.548 96.1576 133.233 92.4843C133.544 91.239 133.918 89.1844 133.855 88.1883ZM37.6003 91.0523L35.1721 103.629H28.8216L29.6309 99.2707C28.7593 101.948 26.5802 104.127 22.9068 104.127C18.4863 104.127 16.4939 100.205 16.4939 96.2822C16.4939 91.7994 18.2372 87.3789 21.1635 84.4526C23.6539 81.9622 26.8292 80.6547 30.3781 80.6547C36.6664 80.717 38.7833 84.9507 37.6003 91.0523ZM31.4988 88.1883C31.4365 86.6318 30.5649 85.7601 29.1329 85.7601C26.0198 85.7601 23.2804 91.1768 23.2804 94.9124C23.2804 97.2783 24.152 98.7103 25.6463 98.7103C28.0744 98.7103 30.1913 96.1576 30.8762 92.4843C31.1252 91.239 31.4988 89.1844 31.4988 88.1883ZM118.477 89.2467C118.477 94.7256 115.862 100.329 111.13 102.82C109.387 103.753 107.706 104.127 106.274 104.127C103.908 104.127 102.6 103.255 101.853 101.886L100.172 110.851H93.5104L99.1762 81.0906H105.029L104.344 84.7017C106.025 82.2735 108.453 80.6547 111.255 80.6547C115.613 80.6547 118.477 84.0168 118.477 89.2467ZM111.566 89.7448C111.566 88.6864 111.317 86.1337 108.889 86.1337C106.398 86.1337 104.282 88.9354 103.472 93.2314C103.161 94.7256 102.414 99.0839 105.464 99.0839C108.951 99.0839 111.566 94.103 111.566 89.7448ZM9.583 86.0714L10.5169 81.0906H4.6644L0.306152 104.065H6.96805L8.77361 94.6011C9.83204 88.9977 13.0073 86.7563 17.6146 87.5034L18.9221 80.6547C14.9374 80.2189 11.2018 82.4603 9.583 86.0714ZM63.0649 103.629L65.3686 91.5504L70.1004 103.629H77.2604L72.3418 91.4881L81.2451 81.0906H73.9606L65.3686 91.3636L68.6684 73.9306H62.0688L56.403 103.691H63.0649V103.629ZM155.771 80.717C147.428 80.717 141.14 86.8185 141.14 94.9124C141.14 100.516 144.876 104.127 150.603 104.127C153.094 104.127 155.46 103.691 157.016 102.944L158.075 97.3406C156.02 98.3368 154.401 98.7726 152.471 98.7726C150.354 98.7726 148.113 97.5896 148.113 94.1653C148.113 90.1806 150.915 86.0714 155.709 86.0714C157.141 86.0714 158.324 86.3827 159.382 86.9431L160.441 81.5264C159.195 81.0283 157.452 80.717 155.771 80.717ZM53.3523 80.717C45.0093 80.717 38.721 86.8185 38.721 94.9124C38.721 100.516 42.4566 104.127 48.1846 104.127C50.6751 104.127 53.041 103.691 54.5975 102.944L55.6559 97.3406C53.6013 98.3368 51.9825 98.7726 50.0525 98.7726C47.9356 98.7726 45.6942 97.5896 45.6942 94.1653C45.6942 90.1806 48.4959 86.0714 53.29 86.0714C54.722 86.0714 55.905 86.3827 56.9634 86.9431L58.0218 81.5264C56.7766 81.0283 55.0333 80.717 53.3523 80.717Z" fill="#393939"/>
</g>
</g>
<defs>
<clipPath id="clip0_505_212">
<rect width="184.612" height="184.612" fill="white" transform="translate(0.306152 0.612427)"/>
</clipPath>
<clipPath id="clip1_505_212">
<rect width="184.612" height="37.1388" fill="white" transform="translate(0.306152 73.9306)"/>
</clipPath>
</defs>
</svg>
