<svg width="186" height="46" viewBox="0 0 186 46" fill="none" xmlns="http://www.w3.org/2000/svg">
<g clip-path="url(#clip0_707_2195)">
<path d="M75.6149 17.0029C81.123 17.0029 82.3561 20.2339 82.3561 23.9625V27.6763H72.7574V28.5677C72.7943 30.6325 73.5327 31.4496 76.1465 31.4496C77.9294 31.4405 79.7011 31.1652 81.4036 30.6325L82.0755 33.9007C80.0487 34.6357 77.9096 35.0077 75.7551 35.0001C70.3577 35.0001 68.4823 32.482 68.4823 28.3151V23.7471C68.4823 20.0928 70.1067 17.0029 75.6149 17.0029ZM111.809 16.9955C117.207 16.9955 118.801 18.9118 118.801 23.2421L118.787 34.6434H115.257L114.94 33.4699C113.417 34.4668 111.64 34.9983 109.823 35C106.685 35 105.341 32.8311 105.341 29.8526C105.341 26.3394 106.862 24.9876 110.355 24.9876H114.482V23.1752C114.482 21.2589 113.95 20.583 111.196 20.583C109.594 20.6008 107.999 20.7806 106.434 21.1178L105.902 17.8125C107.826 17.2777 109.813 17.0029 111.809 16.9955ZM140.421 16.9955C146.313 16.9955 147.9 20.2636 147.9 23.814V28.1814C147.907 31.7318 146.313 35 140.421 35C134.514 35 132.941 31.7318 132.941 28.1814V23.814C132.941 20.2636 134.528 16.9955 140.421 16.9955ZM72.0929 10.994V14.938H65.5215V34.6434H61.0914L61.0766 14.938H54.5126V10.994H72.0929ZM128.777 9.57521C130.024 9.57101 131.266 9.73844 132.468 10.0729L132.018 13.4079C131.205 13.232 130.376 13.1374 129.545 13.1257C127.854 13.1257 127.603 13.8684 127.603 15.1831V17.352H131.981L131.737 20.7984H127.61V34.6434H123.305V20.7984H120.551V17.352H123.305V14.938C123.305 11.3505 124.967 9.57521 128.777 9.57521ZM174.503 18.8449C176.651 17.7379 179.01 17.1072 181.422 16.9955C184.279 16.9955 185.305 19.0158 185.305 22.1056V34.6434H181.001V22.5736C181.001 21.6526 180.609 21.1921 179.627 21.1921C178.047 21.3674 176.52 21.8734 175.145 22.6776V34.6434H170.811V22.5736C170.811 21.6526 170.42 21.1921 169.438 21.1921C167.86 21.3807 166.337 21.8858 164.956 22.6776V34.6434H160.652V17.352H163.937L164.358 18.8375C166.504 17.7456 168.853 17.1181 171.254 16.9955C172.615 16.8662 173.912 17.6045 174.503 18.8449ZM93.424 16.9955L93.8671 20.9767C92.2815 21.6965 90.7535 22.5383 89.2966 23.4946V34.636H84.992V17.352H88.6247L88.9053 19.2683C90.3059 18.3146 91.8252 17.5504 93.424 16.9955ZM103.953 16.9955L104.381 20.9767C102.801 21.697 101.278 22.5388 99.8256 23.4946V34.636H95.521V17.352H99.1537L99.4343 19.2683C100.835 18.3146 102.354 17.5504 103.953 16.9955ZM158.555 16.9955L158.983 20.9767C157.402 21.697 155.879 22.5388 154.427 23.4946V34.636H150.123V17.352H153.755L154.036 19.2683C155.436 18.3145 156.956 17.5503 158.555 16.9955ZM114.482 28.1071H111.307C109.897 28.1071 109.505 28.5008 109.505 29.8081C109.505 31.1153 109.897 31.5461 111.233 31.5461C112.373 31.5286 113.491 31.222 114.482 30.6548V28.1071ZM140.421 20.687C138.124 20.687 137.246 21.7194 137.246 23.658V28.3077C137.246 30.2612 138.132 31.2787 140.421 31.2787C142.709 31.2787 143.595 30.2463 143.595 28.3077V23.6729C143.595 21.7194 142.717 20.687 140.421 20.687ZM75.6518 20.5459C73.5327 20.5459 72.7943 21.6823 72.7943 23.3163V24.1928H78.2656V23.3163C78.2656 21.6823 77.7709 20.5459 75.6518 20.5459Z" fill="#393939"/>
<path d="M27.57 29.4886L39.6791 22.4621V8.38684L27.57 15.4282V29.4886Z" fill="#393939"/>
<path d="M14.1319 8.38686L26.241 15.4282V29.4887L14.1319 22.4547V8.38686ZM0.693779 14.6038L12.8028 21.6377V7.56982L0.693779 0.535889V14.6038ZM14.1319 38.0675L26.241 45.1015V31.0336L14.1319 23.9997" fill="#393939"/>
</g>
<defs>
<clipPath id="clip0_707_2195">
<rect width="184.612" height="44.6147" fill="white" transform="translate(0.693779 0.535889)"/>
</clipPath>
</defs>
</svg>
