<svg width="186" height="38" viewBox="0 0 186 38" fill="none" xmlns="http://www.w3.org/2000/svg">
<g clip-path="url(#clip0_707_2197)">
<path d="M94.832 22.3776C94.832 24.4322 94.1471 26.1755 92.7774 27.5453C90.9718 29.3508 88.0456 30.347 84.4967 30.2848C81.944 30.2225 79.3913 29.5999 77.9593 28.7282L78.8932 23.6229C80.4498 24.4945 83.127 25.3662 85.1193 25.3662C86.8003 25.3662 87.8588 24.619 87.8588 23.3738C87.8588 22.2531 87.0494 21.506 85.057 20.5098C81.8817 18.9533 80.3252 16.961 80.3252 14.5951C80.3252 9.98777 84.3099 6.81247 90.2247 6.81247C93.3377 6.81247 95.3923 7.5596 96.513 8.30673L95.5791 13.3498C94.7074 12.665 92.4038 11.7311 89.9134 11.7311C88.1701 11.7311 87.0494 12.4782 87.0494 13.6611C87.0494 14.5328 87.921 15.2799 89.7266 16.2138C92.1548 17.459 94.832 19.2646 94.832 22.3776ZM185.297 27.1095C185.421 25.5529 184.301 24.3077 182.744 24.3077C181.188 24.3077 179.818 25.5529 179.693 27.1095C179.569 28.5415 180.565 29.9112 182.246 29.9112C183.803 29.9112 185.172 28.666 185.297 27.1095ZM184.923 27.1095C184.799 28.4169 183.616 29.5376 182.246 29.5376C180.939 29.5376 180.005 28.4792 180.129 27.1717C180.254 25.8642 181.437 24.7436 182.806 24.7436C184.052 24.7436 184.985 25.802 184.923 27.1095ZM182.993 27.483L183.429 28.7905H182.993L182.557 27.5453H181.935L181.686 28.7905H181.25L181.872 25.4907H182.931C183.429 25.4907 183.803 25.8642 183.803 26.3001C183.865 26.7359 183.553 27.2962 182.993 27.483ZM182.993 25.8642H182.246L181.997 27.1095H182.682C183.055 27.1095 183.367 26.7982 183.429 26.4246C183.491 26.1755 183.304 25.8642 182.993 25.8642ZM170.852 25.1171C173.654 25.1171 176.082 24.4322 178.697 22.938L177.639 28.5415C174.463 30.1602 170.728 30.347 169.296 30.347C163.07 30.347 159.583 26.9227 159.583 20.8834C159.583 17.3968 160.891 13.9102 163.07 11.3575C165.436 8.55577 168.984 6.93699 172.658 6.93699C177.327 6.93699 180.503 9.67646 180.503 13.7234C180.503 15.5912 179.88 17.1477 178.697 18.3307C176.456 20.5098 170.915 21.755 165.934 20.7589C165.622 23.4983 167.739 25.1171 170.852 25.1171ZM166.556 16.3384C170.479 16.4006 172.658 15.9648 173.654 15.0309C174.712 13.9724 174.339 11.7933 171.786 11.7933C168.922 11.7933 167.054 14.1592 166.556 16.3384ZM140.407 17.2723L137.979 29.8489H131.628L132.437 25.4907C131.566 28.1679 129.387 30.347 125.713 30.347C121.293 30.347 119.3 26.4246 119.3 22.5022C119.3 18.0194 121.044 13.5989 123.97 10.6726C126.46 8.1822 129.636 6.87473 133.185 6.87473C139.473 6.93699 141.527 11.1707 140.407 17.2723ZM134.243 14.4083C134.181 12.8518 133.309 11.9801 131.877 11.9801C128.764 11.9801 126.025 17.3968 126.025 21.1324C126.025 23.4983 126.896 24.9303 128.39 24.9303C130.819 24.9303 132.936 22.3776 133.62 18.7043C133.932 17.459 134.305 15.4044 134.243 14.4083ZM37.9879 17.2723L35.5598 29.8489H29.2092L30.0186 25.4907C29.1469 28.1679 26.9678 30.347 23.2944 30.347C18.8739 30.347 16.8816 26.4246 16.8816 22.5022C16.8816 18.0194 18.6249 13.5989 21.5511 10.6726C24.0416 8.1822 27.2168 6.87473 30.7657 6.87473C37.054 6.93699 39.1709 11.1707 37.9879 17.2723ZM31.8864 14.4083C31.8241 12.8518 30.9525 11.9801 29.5205 11.9801C26.4075 11.9801 23.668 17.3968 23.668 21.1324C23.668 23.4983 24.5396 24.9303 26.0339 24.9303C28.4621 24.9303 30.5789 22.3776 31.2638 18.7043C31.5128 17.459 31.8864 15.4044 31.8864 14.4083ZM118.865 15.4667C118.865 20.9456 116.25 26.5491 111.518 29.0395C109.775 29.9735 108.094 30.347 106.662 30.347C104.296 30.347 102.988 29.4754 102.241 28.1056L100.56 37.0712H93.8981L99.5638 7.31055H105.416L104.731 10.9217C106.412 8.49351 108.841 6.87473 111.642 6.87473C116.001 6.87473 118.865 10.2368 118.865 15.4667ZM111.954 15.9648C111.954 14.9064 111.705 12.3537 109.276 12.3537C106.786 12.3537 104.669 15.1554 103.86 19.4514C103.548 20.9456 102.801 25.3039 105.852 25.3039C109.339 25.3039 111.954 20.323 111.954 15.9648ZM9.97063 12.2914L10.9045 7.31055H5.05204L0.693787 30.2848H7.35568L9.16124 20.8211C10.2197 15.2177 13.395 12.9763 18.0023 13.7234L19.3097 6.87473C15.3251 6.4389 11.5894 8.68029 9.97063 12.2914ZM63.4526 29.8489L65.7562 17.7704L70.488 29.8489H77.648L72.7294 17.7081L81.6327 7.31055H74.3482L65.7562 17.5836L69.056 0.150574H62.4564L56.7907 29.9112H63.4526V29.8489ZM156.159 6.93699C147.816 6.93699 141.527 13.0385 141.527 21.1324C141.527 26.7359 145.263 30.347 150.991 30.347C153.482 30.347 155.847 29.9112 157.404 29.1641L158.462 23.5606C156.408 24.5568 154.789 24.9926 152.859 24.9926C150.742 24.9926 148.501 23.8096 148.501 20.3853C148.501 16.4006 151.302 12.2914 156.097 12.2914C157.529 12.2914 158.711 12.6027 159.77 13.1631L160.828 7.74638C159.583 7.24829 157.84 6.93699 156.159 6.93699ZM53.7399 6.93699C45.397 6.93699 39.1086 13.0385 39.1086 21.1324C39.1086 26.7359 42.8443 30.347 48.5723 30.347C51.0627 30.347 53.4286 29.9112 54.9851 29.1641L56.0436 23.5606C53.9889 24.5568 52.3702 24.9926 50.4401 24.9926C48.3232 24.9926 46.0818 23.8096 46.0818 20.3853C46.0818 16.4006 48.8836 12.2914 53.6776 12.2914C55.1096 12.2914 56.2926 12.6027 57.351 13.1631L58.4095 7.74638C57.1642 7.24829 55.4209 6.93699 53.7399 6.93699Z" fill="#393939"/>
</g>
<defs>
<clipPath id="clip0_707_2197">
<rect width="184.612" height="37.1388" fill="white" transform="translate(0.693787 0.150574)"/>
</clipPath>
</defs>
</svg>
