<svg width="186" height="186" viewBox="0 0 186 186" fill="none" xmlns="http://www.w3.org/2000/svg">
<g clip-path="url(#clip0_505_210)">
<g clip-path="url(#clip1_505_210)">
<path d="M75.102 86.3091C80.6102 86.3091 81.8432 89.5401 81.8432 93.2688V96.9826H72.2446V97.8739C72.2815 99.9387 73.0199 100.756 75.6336 100.756C77.4166 100.747 79.1882 100.471 80.8907 99.9387L81.5627 103.207C79.5359 103.942 77.3967 104.314 75.2423 104.306C69.8449 104.306 67.9695 101.788 67.9695 97.6213V93.0534C67.9695 89.399 69.5939 86.3091 75.102 86.3091ZM111.296 86.3017C116.694 86.3017 118.289 88.218 118.289 92.5483L118.274 103.95H114.744L114.427 102.776C112.904 103.773 111.127 104.304 109.31 104.306C106.172 104.306 104.828 102.137 104.828 99.1588C104.828 95.6456 106.349 94.2938 109.842 94.2938H113.969V92.4814C113.969 90.5651 113.438 89.8892 110.683 89.8892C109.081 89.907 107.486 90.0868 105.921 90.424L105.389 87.1187C107.314 86.5839 109.3 86.3091 111.296 86.3017ZM139.908 86.3017C145.8 86.3017 147.387 89.5698 147.387 93.1202V97.4876C147.395 101.038 145.8 104.306 139.908 104.306C134.001 104.306 132.428 101.038 132.428 97.4876V93.1202C132.428 89.5698 134.016 86.3017 139.908 86.3017ZM71.5801 80.3002V84.2442H65.0087V103.95H60.5785L60.5638 84.2442H53.9998V80.3002H71.5801ZM128.264 78.8814C129.511 78.8772 130.753 79.0447 131.956 79.3792L131.505 82.7141C130.692 82.5382 129.863 82.4436 129.032 82.4319C127.341 82.4319 127.09 83.1747 127.09 84.4893V86.6582H131.468L131.225 90.1046H127.097V103.95H122.793V90.1046H120.038V86.6582H122.793V84.2442C122.793 80.6567 124.454 78.8814 128.264 78.8814ZM173.99 88.1511C176.138 87.0441 178.498 86.4134 180.909 86.3017C183.766 86.3017 184.792 88.322 184.792 91.4119V103.95H180.488V91.8798C180.488 90.9588 180.096 90.4983 179.114 90.4983C177.534 90.6736 176.007 91.1796 174.633 91.9838V103.95H170.298V91.8798C170.298 90.9588 169.907 90.4983 168.925 90.4983C167.347 90.6869 165.824 91.192 164.443 91.9838V103.95H160.139V86.6582H163.424L163.845 88.1437C165.991 87.0518 168.34 86.4243 170.741 86.3017C172.102 86.1724 173.4 86.9107 173.99 88.1511ZM92.9112 86.3017L93.3542 90.2829C91.7686 91.0027 90.2406 91.8445 88.7838 92.8008V103.942H84.4792V86.6582H88.1119L88.3925 88.5745C89.7931 87.6208 91.3124 86.8567 92.9112 86.3017ZM103.44 86.3017L103.868 90.2829C102.288 91.0032 100.765 91.8451 99.3128 92.8008V103.942H95.0081V86.6582H98.6409L98.9214 88.5745C100.322 87.6208 101.841 86.8567 103.44 86.3017ZM158.042 86.3017L158.47 90.2829C156.889 91.0032 155.366 91.8451 153.914 92.8008V103.942H149.61V86.6582H153.242L153.523 88.5745C154.924 87.6207 156.443 86.8565 158.042 86.3017ZM113.969 97.4134H110.794C109.384 97.4134 108.993 97.807 108.993 99.1143C108.993 100.422 109.384 100.852 110.72 100.852C111.861 100.835 112.978 100.528 113.969 99.961V97.4134ZM139.908 89.9932C137.611 89.9932 136.733 91.0256 136.733 92.9642V97.6139C136.733 99.5674 137.619 100.585 139.908 100.585C142.197 100.585 143.083 99.5525 143.083 97.6139V92.9791C143.083 91.0256 142.204 89.9932 139.908 89.9932ZM75.1389 89.8521C73.0198 89.8521 72.2815 90.9885 72.2815 92.6226V93.499H77.7527V92.6226C77.7527 90.9885 77.258 89.8521 75.1389 89.8521Z" fill="#393939"/>
<path d="M27.0571 98.7949L39.1662 91.7684V77.6931L27.0571 84.7344V98.7949Z" fill="#393939"/>
<path d="M13.619 77.6931L25.7281 84.7344V98.7949L13.619 91.7609V77.6931ZM0.180908 83.91L12.29 90.9439V76.876L0.180908 69.8421V83.91ZM13.619 107.374L25.7281 114.408V100.34L13.619 93.3059" fill="#393939"/>
</g>
</g>
<defs>
<clipPath id="clip0_505_210">
<rect width="184.612" height="184.612" fill="white" transform="translate(0.693848 0.612427)"/>
</clipPath>
<clipPath id="clip1_505_210">
<rect width="184.612" height="44.6147" fill="white" transform="translate(0.180908 69.8421)"/>
</clipPath>
</defs>
</svg>
