<svg width="286" height="121" viewBox="0 0 286 121" fill="none" xmlns="http://www.w3.org/2000/svg">
<circle cx="19.2348" cy="52.8431" r="7.49198" fill="#DF8928"/>
<circle cx="19.2348" cy="67.8269" r="7.49198" fill="#DF8928"/>
<circle cx="34.2188" cy="52.8431" r="7.49198" fill="#DF8928"/>
<circle cx="34.2188" cy="67.8269" r="7.49198" fill="#DF8928"/>
<path d="M67.9736 52.993C67.7791 52.7985 67.4178 52.5345 66.8898 52.201C66.3896 51.8676 65.7644 51.548 65.0141 51.2423C64.2916 50.9366 63.4996 50.6727 62.6381 50.4503C61.7767 50.2002 60.9013 50.0752 60.0121 50.0752C58.4559 50.0752 57.2749 50.367 56.469 50.9505C55.691 51.5341 55.3019 52.3539 55.3019 53.4098C55.3019 54.2157 55.552 54.8549 56.0522 55.3273C56.5524 55.7997 57.3027 56.2026 58.3031 56.5361C59.3035 56.8695 60.554 57.2308 62.0546 57.6198C63.9998 58.0922 65.681 58.6758 67.0982 59.3705C68.5433 60.0375 69.6409 60.9267 70.3912 62.0382C71.1693 63.122 71.5583 64.567 71.5583 66.3733C71.5583 67.9572 71.2665 69.3189 70.683 70.4582C70.0994 71.5698 69.2935 72.4729 68.2654 73.1676C67.2372 73.8624 66.0701 74.3764 64.764 74.7099C63.4579 75.0156 62.0685 75.1684 60.5957 75.1684C59.1229 75.1684 57.6501 75.0156 56.1773 74.7099C54.7045 74.4042 53.2872 73.9735 51.9256 73.4177C50.5639 72.8342 49.3134 72.1395 48.1741 71.3336L50.7168 66.3733C50.9669 66.6234 51.4115 66.9569 52.0506 67.3737C52.6898 67.7627 53.4679 68.1657 54.3849 68.5825C55.3019 68.9715 56.3023 69.305 57.3861 69.5829C58.4698 69.8608 59.5675 69.9997 60.679 69.9997C62.2352 69.9997 63.4162 69.7357 64.2221 69.2077C65.028 68.6798 65.4309 67.9295 65.4309 66.9569C65.4309 66.0676 65.1113 65.3729 64.4722 64.8727C63.8331 64.3725 62.9438 63.9418 61.8045 63.5805C60.6651 63.1915 59.3174 62.7746 57.7612 62.33C55.8994 61.802 54.3432 61.2185 53.0927 60.5793C51.8422 59.9124 50.9113 59.0787 50.2999 58.0784C49.6886 57.078 49.3829 55.8275 49.3829 54.3269C49.3829 52.2983 49.8553 50.6032 50.8001 49.2415C51.7727 47.8521 53.0788 46.81 54.7184 46.1153C56.3579 45.3928 58.1781 45.0315 60.1788 45.0315C61.5683 45.0315 62.8743 45.1844 64.0971 45.4901C65.3475 45.7957 66.5147 46.1987 67.5984 46.6989C68.6822 47.1991 69.6548 47.7409 70.5163 48.3245L67.9736 52.993ZM75.9051 74.835V45.2816H81.6574V59.3288L94.0789 45.24H100.415L89.077 58.3701L101.123 74.835H94.6208L85.4088 62.0799L81.6574 65.9981V74.835H75.9051ZM107.123 45.24L114.418 59.1621L121.838 45.24H128.048L117.294 64.4976V74.835H111.584V64.4142L100.871 45.24H107.123ZM131.306 74.835V45.24H142.06C145.284 45.24 147.979 45.9069 150.147 47.2407C152.314 48.5468 153.94 50.3253 155.024 52.5762C156.108 54.7993 156.649 57.2725 156.649 59.9958C156.649 62.997 156.052 65.6091 154.857 67.8322C153.662 70.0553 151.967 71.7782 149.772 73.0009C147.604 74.2236 145.034 74.835 142.06 74.835H131.306ZM150.856 59.9958C150.856 58.0784 150.508 56.3971 149.813 54.9521C149.119 53.4793 148.118 52.34 146.812 51.5341C145.506 50.7004 143.922 50.2836 142.06 50.2836H137.058V69.7913H142.06C143.95 69.7913 145.548 69.3745 146.854 68.5408C148.16 67.6794 149.147 66.5122 149.813 65.0394C150.508 63.5388 150.856 61.8576 150.856 59.9958ZM161.144 74.835V45.24H174.232C175.594 45.24 176.844 45.5178 177.984 46.0736C179.151 46.6294 180.151 47.3797 180.985 48.3245C181.846 49.2693 182.499 50.3253 182.944 51.4924C183.416 52.6596 183.653 53.8545 183.653 55.0772C183.653 56.3277 183.43 57.5365 182.986 58.7036C182.569 59.8429 181.958 60.8433 181.152 61.7048C180.346 62.5662 179.401 63.2332 178.317 63.7056L185.07 74.835H178.734L172.648 64.9144H166.896V74.835H161.144ZM166.896 59.8707H174.107C174.83 59.8707 175.469 59.6623 176.025 59.2455C176.58 58.8009 177.025 58.2173 177.359 57.4948C177.692 56.7723 177.859 55.9664 177.859 55.0772C177.859 54.1324 177.664 53.3126 177.275 52.6179C176.886 51.8954 176.386 51.3257 175.775 50.9089C175.191 50.492 174.552 50.2836 173.857 50.2836H166.896V59.8707ZM201.332 75.0434C199.164 75.0434 197.191 74.6265 195.413 73.7929C193.662 72.9592 192.148 71.8338 190.869 70.4166C189.619 68.9715 188.646 67.3598 187.952 65.5813C187.257 63.775 186.909 61.9271 186.909 60.0375C186.909 58.0645 187.271 56.1887 187.993 54.4102C188.744 52.604 189.758 51.0061 191.036 49.6167C192.342 48.1995 193.871 47.0879 195.621 46.282C197.4 45.4484 199.345 45.0315 201.457 45.0315C203.597 45.0315 205.542 45.4623 207.293 46.3237C209.071 47.1852 210.585 48.3384 211.836 49.7834C213.086 51.2284 214.059 52.8402 214.754 54.6187C215.449 56.3971 215.796 58.2312 215.796 60.1208C215.796 62.066 215.435 63.9418 214.712 65.748C213.99 67.5265 212.975 69.1244 211.669 70.5416C210.391 71.931 208.863 73.0287 207.084 73.8346C205.333 74.6404 203.416 75.0434 201.332 75.0434ZM192.745 60.0375C192.745 61.3157 192.94 62.5523 193.329 63.7473C193.718 64.9422 194.273 66.012 194.996 66.9569C195.746 67.8739 196.649 68.6103 197.705 69.1661C198.789 69.694 200.012 69.958 201.374 69.958C202.763 69.958 204 69.6802 205.083 69.1244C206.167 68.5408 207.07 67.7766 207.793 66.8318C208.515 65.8592 209.057 64.7893 209.418 63.6222C209.807 62.4273 210.002 61.2324 210.002 60.0375C210.002 58.7592 209.793 57.5365 209.377 56.3693C208.988 55.1744 208.418 54.1185 207.668 53.2014C206.945 52.2566 206.042 51.5202 204.958 50.9922C203.902 50.4365 202.707 50.1586 201.374 50.1586C199.956 50.1586 198.706 50.4503 197.622 51.0339C196.566 51.5897 195.677 52.34 194.954 53.2848C194.232 54.2296 193.676 55.2856 193.287 56.4527C192.926 57.6198 192.745 58.8148 192.745 60.0375ZM225.961 55.8275V74.835H220.208V45.24H224.794L240.091 64.7476V45.2816H245.844V74.835H241.05L225.961 55.8275ZM272.55 69.7913V74.835H252V45.24H272.175V50.2836H257.752V57.4114H270.215V62.0799H257.752V69.7913H272.55Z" fill="#F3F3F3"/>
</svg>
