<svg width="286" height="31" viewBox="0 0 286 31" fill="none" xmlns="http://www.w3.org/2000/svg">
<g clip-path="url(#clip0_707_2379)">
<circle cx="19.2348" cy="7.73417" r="7.49198" fill="#DF8928"/>
<circle cx="19.2348" cy="22.7181" r="7.49198" fill="#DF8928"/>
<circle cx="34.2189" cy="7.73417" r="7.49198" fill="#DF8928"/>
<circle cx="34.2189" cy="22.7181" r="7.49198" fill="#DF8928"/>
<path d="M67.9736 7.88413C67.7791 7.68961 67.4178 7.42561 66.8898 7.09215C66.3897 6.75868 65.7644 6.43911 65.0141 6.13344C64.2916 5.82776 63.4996 5.56377 62.6382 5.34146C61.7767 5.09136 60.9014 4.96631 60.0121 4.96631C58.456 4.96631 57.2749 5.25809 56.4691 5.84166C55.691 6.42522 55.3019 7.24499 55.3019 8.30096C55.3019 9.10683 55.552 9.74597 56.0522 10.2184C56.5524 10.6908 57.3027 11.0937 58.3031 11.4272C59.3035 11.7607 60.554 12.1219 62.0546 12.511C63.9998 12.9834 65.681 13.5669 67.0983 14.2616C68.5433 14.9286 69.6409 15.8178 70.3912 16.9294C71.1693 18.0131 71.5584 19.4581 71.5584 21.2644C71.5584 22.8484 71.2666 24.21 70.683 25.3493C70.0994 26.4609 69.2936 27.364 68.2654 28.0588C67.2372 28.7535 66.0701 29.2676 64.764 29.601C63.4579 29.9067 62.0685 30.0595 60.5957 30.0595C59.1229 30.0595 57.6501 29.9067 56.1773 29.601C54.7045 29.2953 53.2873 28.8646 51.9256 28.3088C50.564 27.7253 49.3135 27.0306 48.1741 26.2247L50.7168 21.2644C50.9669 21.5145 51.4115 21.848 52.0507 22.2648C52.6898 22.6538 53.4679 23.0568 54.3849 23.4736C55.3019 23.8627 56.3023 24.1961 57.3861 24.474C58.4699 24.7519 59.5675 24.8908 60.6791 24.8908C62.2352 24.8908 63.4163 24.6268 64.2221 24.0989C65.028 23.5709 65.4309 22.8206 65.4309 21.848C65.4309 20.9587 65.1114 20.264 64.4722 19.7638C63.8331 19.2636 62.9438 18.8329 61.8045 18.4716C60.6652 18.0826 59.3174 17.6658 57.7612 17.2211C55.8994 16.6932 54.3432 16.1096 53.0927 15.4705C51.8422 14.8035 50.9113 13.9699 50.3 12.9695C49.6886 11.9691 49.3829 10.7186 49.3829 9.21799C49.3829 7.18941 49.8554 5.4943 50.8002 4.13265C51.7728 2.74321 53.0788 1.70113 54.7184 1.00642C56.3579 0.283909 58.1781 -0.0773449 60.1789 -0.0773449C61.5683 -0.0773449 62.8744 0.0754929 64.0971 0.381168C65.3476 0.686845 66.5147 1.08978 67.5985 1.58998C68.6822 2.09018 69.6548 2.63206 70.5163 3.21562L67.9736 7.88413ZM75.9051 29.7261V0.172753H81.6574V14.22L94.079 0.13107H100.415L89.077 13.2612L101.123 29.7261H94.6208L85.4089 16.971L81.6574 20.8893V29.7261H75.9051ZM107.123 0.13107L114.418 14.0532L121.838 0.13107H128.048L117.294 19.3887V29.7261H111.584V19.3053L100.871 0.13107H107.123ZM131.306 29.7261V0.13107H142.06C145.284 0.13107 147.979 0.798 150.147 2.13186C152.314 3.43793 153.94 5.21641 155.024 7.4673C156.108 9.6904 156.65 12.1636 156.65 14.8869C156.65 17.8881 156.052 20.5002 154.857 22.7233C153.662 24.9464 151.967 26.6693 149.772 27.892C147.604 29.1147 145.034 29.7261 142.06 29.7261H131.306ZM150.856 14.8869C150.856 12.9695 150.508 11.2882 149.813 9.84323C149.119 8.37043 148.118 7.23109 146.812 6.42522C145.506 5.59156 143.922 5.17473 142.06 5.17473H137.058V24.6824H142.06C143.95 24.6824 145.548 24.2656 146.854 23.4319C148.16 22.5705 149.147 21.4033 149.813 19.9305C150.508 18.43 150.856 16.7487 150.856 14.8869ZM161.144 29.7261V0.13107H174.232C175.594 0.13107 176.844 0.408958 177.984 0.964732C179.151 1.52051 180.151 2.2708 180.985 3.21562C181.846 4.16044 182.499 5.21641 182.944 6.38354C183.416 7.55066 183.653 8.74558 183.653 9.96828C183.653 11.2188 183.43 12.4276 182.986 13.5947C182.569 14.7341 181.958 15.7344 181.152 16.5959C180.346 17.4573 179.401 18.1243 178.317 18.5967L185.07 29.7261H178.734L172.648 19.8055H166.896V29.7261H161.144ZM166.896 14.7618H174.107C174.83 14.7618 175.469 14.5534 176.025 14.1366C176.58 13.692 177.025 13.1084 177.359 12.3859C177.692 11.6634 177.859 10.8575 177.859 9.96828C177.859 9.02347 177.664 8.2037 177.275 7.50898C176.886 6.78647 176.386 6.2168 175.775 5.79997C175.191 5.38314 174.552 5.17473 173.857 5.17473H166.896V14.7618ZM201.332 29.9345C199.164 29.9345 197.191 29.5177 195.413 28.684C193.662 27.8503 192.148 26.7249 190.869 25.3077C189.619 23.8627 188.646 22.2509 187.952 20.4724C187.257 18.6662 186.909 16.8182 186.909 14.9286C186.909 12.9556 187.271 11.0798 187.993 9.30135C188.744 7.49509 189.758 5.89723 191.036 4.5078C192.342 3.09057 193.871 1.97902 195.621 1.17315C197.4 0.339486 199.345 -0.0773449 201.457 -0.0773449C203.597 -0.0773449 205.542 0.353381 207.293 1.21483C209.071 2.07628 210.586 3.22951 211.836 4.67453C213.086 6.11954 214.059 7.73129 214.754 9.50977C215.449 11.2882 215.796 13.1223 215.796 15.0119C215.796 16.9571 215.435 18.8329 214.712 20.6392C213.99 22.4176 212.975 24.0155 211.669 25.4327C210.391 26.8222 208.863 27.9198 207.084 28.7257C205.333 29.5316 203.416 29.9345 201.332 29.9345ZM192.745 14.9286C192.745 16.2069 192.94 17.4435 193.329 18.6384C193.718 19.8333 194.274 20.9032 194.996 21.848C195.746 22.765 196.649 23.5014 197.705 24.0572C198.789 24.5852 200.012 24.8492 201.374 24.8492C202.763 24.8492 204 24.5713 205.083 24.0155C206.167 23.4319 207.07 22.6677 207.793 21.7229C208.515 20.7503 209.057 19.6804 209.418 18.5133C209.807 17.3184 210.002 16.1235 210.002 14.9286C210.002 13.6503 209.794 12.4276 209.377 11.2605C208.988 10.0655 208.418 9.00957 207.668 8.09254C206.945 7.14773 206.042 6.41132 204.958 5.88334C203.902 5.32756 202.707 5.04968 201.374 5.04968C199.956 5.04968 198.706 5.34146 197.622 5.92502C196.566 6.4808 195.677 7.23109 194.954 8.17591C194.232 9.12073 193.676 10.1767 193.287 11.3438C192.926 12.511 192.745 13.7059 192.745 14.9286ZM225.961 10.7186V29.7261H220.208V0.13107H224.794L240.091 19.6388V0.172753H245.844V29.7261H241.05L225.961 10.7186ZM272.55 24.6824V29.7261H252V0.13107H272.175V5.17473H257.752V12.3025H270.215V16.971H257.752V24.6824H272.55Z" fill="#F3F3F3"/>
</g>
<defs>
<clipPath id="clip0_707_2379">
<rect width="286" height="30" fill="white" transform="translate(0 0.226074)"/>
</clipPath>
</defs>
</svg>
